<?xml version="1.0"?>
<svg id="svg" version="1.1"
    xmlns="http://www.w3.org/2000/svg"
    xmlns:xlink="http://www.w3.org/1999/xlink" width="28" height="28" viewBox="0, 0, 400,400">
    <g id="svgg">
        <path id="path0" d="M130.000 46.558 L 130.000 74.717 137.900 74.955 C 142.245 75.086,147.240 75.358,149.000 75.559 C 151.926 75.893,153.439 76.113,160.000 77.162 C 163.781 77.767,171.295 79.326,175.400 80.359 C 176.280 80.580,177.810 80.947,178.800 81.175 C 179.790 81.402,181.320 81.781,182.200 82.015 C 183.080 82.250,184.070 82.478,184.400 82.521 C 184.928 82.591,185.010 79.184,185.087 54.246 C 185.135 38.652,185.076 25.990,184.957 26.110 C 184.838 26.229,184.168 26.148,183.470 25.929 C 181.833 25.416,180.603 25.166,178.500 24.919 C 177.565 24.809,176.800 24.558,176.800 24.360 C 176.800 24.162,176.181 24.000,175.424 24.000 C 174.667 24.000,173.936 23.820,173.800 23.600 C 173.664 23.380,172.854 23.200,172.000 23.200 C 171.146 23.200,170.336 23.020,170.200 22.800 C 170.064 22.580,169.143 22.400,168.153 22.400 C 167.055 22.400,166.449 22.244,166.600 22.000 C 166.752 21.754,166.079 21.600,164.847 21.600 C 163.747 21.600,162.736 21.420,162.600 21.200 C 162.464 20.980,161.373 20.800,160.176 20.800 C 158.979 20.800,158.000 20.635,158.000 20.433 C 158.000 20.071,155.570 19.791,148.694 19.362 C 146.692 19.237,145.287 18.984,145.418 18.771 C 145.556 18.548,142.537 18.400,137.824 18.400 L 130.000 18.400 130.000 46.558 M242.259 44.074 C 242.123 44.583,242.008 57.441,242.005 72.647 L 242.000 100.295 249.700 102.135 C 267.868 106.476,276.512 107.789,289.900 108.243 L 297.600 108.504 297.600 80.884 C 297.600 65.694,297.491 52.981,297.357 52.633 C 297.148 52.088,296.113 52.000,289.934 52.000 C 285.248 52.000,282.839 51.861,283.000 51.600 C 283.157 51.345,282.012 51.200,279.847 51.200 C 277.977 51.200,276.336 51.020,276.200 50.800 C 276.064 50.580,274.883 50.400,273.576 50.400 C 272.269 50.400,271.200 50.252,271.200 50.071 C 271.200 49.891,270.269 49.700,269.131 49.649 C 267.993 49.597,266.745 49.384,266.357 49.177 C 265.970 48.970,265.047 48.800,264.306 48.800 C 263.566 48.800,262.789 48.637,262.580 48.439 C 262.371 48.240,261.390 47.986,260.400 47.874 C 258.449 47.654,256.551 47.270,255.600 46.904 C 255.270 46.777,254.460 46.599,253.800 46.508 C 253.140 46.416,252.429 46.175,252.220 45.971 C 252.011 45.767,251.156 45.600,250.320 45.600 C 249.484 45.600,248.800 45.459,248.800 45.287 C 248.800 45.115,248.340 44.936,247.779 44.890 C 247.217 44.843,246.419 44.624,246.005 44.403 C 245.591 44.181,244.827 44.000,244.306 44.000 C 243.786 44.000,243.168 43.808,242.934 43.574 C 242.632 43.272,242.435 43.418,242.259 44.074 M125.600 76.487 C 114.971 77.476,109.238 78.447,102.055 80.478 C 95.091 82.447,87.738 85.283,83.000 87.829 C 79.191 89.875,77.332 90.940,76.338 91.646 C 75.754 92.061,75.156 92.400,75.010 92.400 C 73.626 92.400,73.600 92.935,73.600 120.999 L 73.600 148.454 74.768 147.622 C 75.411 147.165,76.896 146.284,78.068 145.665 C 79.241 145.046,80.560 144.341,81.000 144.099 C 81.943 143.578,87.825 140.823,90.400 139.696 C 95.187 137.601,104.791 134.732,111.400 133.423 C 115.635 132.584,126.107 131.200,128.216 131.200 L 129.600 131.200 129.600 103.824 C 129.600 88.767,129.465 76.385,129.300 76.309 C 129.135 76.233,127.470 76.313,125.600 76.487 M186.305 111.717 L 186.200 139.485 188.000 139.977 C 188.990 140.248,190.250 140.613,190.800 140.788 C 191.350 140.964,192.610 141.329,193.600 141.600 C 194.590 141.871,195.850 142.231,196.400 142.400 C 196.950 142.569,198.210 142.929,199.200 143.199 C 200.190 143.470,201.360 143.830,201.800 144.000 C 202.240 144.170,203.410 144.530,204.400 144.800 C 205.390 145.070,206.560 145.430,207.000 145.600 C 207.440 145.770,208.610 146.130,209.600 146.400 C 210.590 146.670,211.760 147.029,212.200 147.198 C 212.960 147.489,216.255 148.530,224.800 151.179 C 226.890 151.827,230.400 152.924,232.600 153.615 C 234.800 154.307,237.635 155.198,238.900 155.594 L 241.200 156.316 241.200 128.390 L 241.200 100.464 239.900 100.183 C 239.185 100.029,235.540 99.009,231.800 97.917 C 228.060 96.825,224.460 95.788,223.800 95.613 C 223.140 95.438,221.790 95.030,220.800 94.707 C 219.810 94.384,217.650 93.711,216.000 93.212 C 214.350 92.713,212.640 92.168,212.200 92.000 C 211.760 91.833,209.510 91.108,207.200 90.389 C 204.890 89.670,201.470 88.594,199.600 87.997 C 196.394 86.973,189.269 84.778,187.305 84.209 L 186.411 83.950 186.305 111.717 M353.000 92.636 C 352.120 93.176,351.130 93.732,350.800 93.874 C 350.470 94.015,349.749 94.442,349.198 94.822 C 347.508 95.990,339.592 99.801,336.000 101.175 C 334.130 101.891,332.240 102.619,331.800 102.793 C 331.360 102.966,330.190 103.330,329.200 103.600 C 328.210 103.870,327.040 104.237,326.600 104.415 C 326.160 104.594,325.260 104.851,324.600 104.988 C 323.940 105.124,322.680 105.419,321.800 105.643 C 316.828 106.908,309.463 108.009,301.700 108.647 L 298.400 108.919 298.400 136.884 L 298.400 164.849 300.100 164.614 C 301.035 164.485,303.690 164.197,306.000 163.974 C 311.847 163.410,316.890 162.683,319.600 162.012 C 325.387 160.581,327.196 160.087,330.200 159.120 C 331.520 158.695,332.960 158.197,333.400 158.013 C 333.840 157.829,335.280 157.264,336.600 156.758 C 340.107 155.413,346.471 152.241,350.635 149.763 C 352.634 148.573,354.479 147.600,354.735 147.600 C 355.084 147.600,355.200 140.617,355.200 119.600 C 355.200 104.200,355.065 91.612,354.900 91.628 C 354.735 91.643,353.880 92.097,353.000 92.636 M130.097 159.500 L 130.200 187.400 138.800 187.652 C 143.530 187.790,149.470 188.210,152.000 188.583 C 159.559 189.701,161.312 189.979,163.200 190.361 C 164.190 190.562,165.990 190.922,167.200 191.162 C 168.410 191.402,170.210 191.788,171.200 192.021 C 172.190 192.253,173.720 192.604,174.600 192.800 C 176.304 193.179,178.787 193.779,181.400 194.443 C 182.280 194.666,183.495 194.949,184.100 195.070 L 185.200 195.291 185.200 167.694 C 185.200 137.886,185.329 139.563,183.000 139.036 C 182.340 138.886,181.170 138.601,180.400 138.402 C 179.630 138.202,178.100 137.833,177.000 137.580 C 175.900 137.328,174.280 136.949,173.400 136.739 C 172.520 136.528,171.080 136.209,170.200 136.030 C 169.320 135.850,167.160 135.409,165.400 135.050 C 154.671 132.859,143.270 131.603,134.097 131.601 L 129.995 131.600 130.097 159.500 M242.000 185.110 L 242.000 213.112 243.300 213.327 C 244.523 213.530,246.357 213.958,249.600 214.800 C 252.397 215.526,257.225 216.619,260.200 217.200 C 261.080 217.372,262.790 217.724,264.000 217.983 C 271.303 219.545,279.752 220.477,288.500 220.685 L 297.600 220.902 297.600 193.051 L 297.600 165.200 292.622 165.200 C 282.960 165.200,270.697 163.737,259.400 161.236 C 258.520 161.042,257.170 160.764,256.400 160.620 C 255.630 160.476,254.280 160.172,253.400 159.946 C 252.520 159.719,251.170 159.376,250.400 159.183 C 249.630 158.990,247.830 158.538,246.400 158.179 C 244.970 157.820,243.395 157.432,242.900 157.316 L 242.000 157.107 242.000 185.110 M124.800 188.462 C 120.764 188.723,116.153 189.246,113.200 189.779 C 109.630 190.422,107.279 190.890,105.900 191.230 C 102.973 191.952,100.990 192.495,100.200 192.790 C 99.760 192.955,98.680 193.307,97.800 193.574 C 92.290 195.244,83.853 199.057,77.513 202.741 L 73.627 205.000 73.620 232.600 C 73.612 260.650,73.672 261.867,74.991 260.409 C 75.394 259.964,75.966 259.600,76.262 259.600 C 76.558 259.600,76.800 259.420,76.800 259.200 C 76.800 258.980,77.034 258.800,77.320 258.800 C 78.056 258.800,79.993 257.859,79.997 257.500 C 79.999 257.335,80.261 257.200,80.580 257.200 C 80.900 257.200,82.385 256.583,83.880 255.829 C 89.497 252.998,92.548 251.644,92.869 251.843 C 93.051 251.955,93.200 251.896,93.200 251.711 C 93.200 251.526,94.055 251.129,95.100 250.829 C 96.145 250.529,97.180 250.162,97.400 250.014 C 98.005 249.606,100.881 248.760,101.900 248.691 C 102.395 248.657,102.800 248.508,102.800 248.360 C 102.800 248.103,103.829 247.833,106.704 247.337 C 107.421 247.213,108.106 246.951,108.227 246.756 C 108.348 246.560,109.412 246.400,110.590 246.400 C 111.769 246.400,112.793 246.230,112.867 246.022 C 112.940 245.815,114.027 245.604,115.282 245.555 C 116.537 245.505,117.471 245.315,117.358 245.132 C 117.245 244.950,118.963 244.800,121.176 244.800 C 123.592 244.800,125.200 244.640,125.200 244.400 C 125.200 244.180,126.190 244.000,127.400 244.000 L 129.600 244.000 129.600 216.224 C 129.600 200.947,129.465 188.389,129.300 188.319 C 129.135 188.248,127.110 188.313,124.800 188.462 M186.400 224.720 C 186.400 254.694,186.321 253.600,188.480 253.600 C 189.096 253.600,189.600 253.780,189.600 254.000 C 189.600 254.220,189.992 254.400,190.472 254.400 C 191.227 254.400,192.417 254.707,194.800 255.517 C 195.655 255.808,196.493 256.000,197.300 256.091 C 197.685 256.135,198.000 256.282,198.000 256.418 C 198.000 256.555,198.266 256.667,198.592 256.667 C 199.337 256.667,202.463 257.643,203.010 258.046 C 203.235 258.213,204.360 258.473,205.510 258.626 C 206.659 258.778,207.600 259.060,207.600 259.252 C 207.600 259.443,208.129 259.600,208.776 259.600 C 209.423 259.600,210.064 259.780,210.200 260.000 C 210.336 260.220,210.966 260.400,211.600 260.400 C 212.234 260.400,212.864 260.580,213.000 260.800 C 213.136 261.020,213.687 261.200,214.224 261.200 C 214.761 261.200,215.200 261.380,215.200 261.600 C 215.200 261.820,215.740 262.000,216.400 262.000 C 217.060 262.000,217.600 262.180,217.600 262.400 C 217.600 262.620,218.241 262.800,219.024 262.800 C 219.871 262.800,220.347 262.962,220.200 263.200 C 220.056 263.433,220.455 263.600,221.153 263.600 C 221.813 263.600,222.464 263.780,222.600 264.000 C 222.736 264.220,223.467 264.400,224.224 264.400 C 224.981 264.400,225.600 264.580,225.600 264.800 C 225.600 265.020,226.039 265.200,226.576 265.200 C 227.113 265.200,227.664 265.380,227.800 265.600 C 227.936 265.820,228.476 266.000,229.000 266.000 C 229.524 266.000,230.064 266.180,230.200 266.400 C 230.336 266.620,231.067 266.800,231.824 266.800 C 232.581 266.800,233.200 266.980,233.200 267.200 C 233.200 267.420,233.729 267.600,234.376 267.600 C 235.023 267.600,235.664 267.780,235.800 268.000 C 235.936 268.220,236.566 268.400,237.200 268.400 C 237.834 268.400,238.464 268.580,238.600 268.800 C 238.736 269.020,239.377 269.200,240.024 269.200 L 241.200 269.200 241.200 241.228 L 241.200 213.257 238.900 212.623 C 237.635 212.275,235.880 211.791,235.000 211.549 C 234.120 211.306,232.950 210.969,232.400 210.800 C 231.850 210.631,230.590 210.266,229.600 209.989 C 227.104 209.290,222.762 207.956,221.800 207.593 C 221.360 207.427,220.190 207.065,219.200 206.789 C 218.210 206.512,215.870 205.797,214.000 205.198 C 212.130 204.600,209.610 203.801,208.400 203.423 C 207.190 203.045,204.490 202.196,202.400 201.535 C 194.641 199.082,187.101 196.800,186.756 196.800 C 186.551 196.800,186.400 208.673,186.400 224.720 M353.571 204.965 C 353.037 205.253,351.340 206.171,349.800 207.005 C 339.136 212.777,327.618 217.110,318.200 218.892 C 317.100 219.100,315.390 219.437,314.400 219.642 C 311.501 220.239,306.487 220.867,302.400 221.143 L 298.600 221.400 298.497 249.377 C 298.441 264.765,298.531 277.455,298.697 277.577 C 299.233 277.972,310.437 277.583,310.187 277.179 C 309.999 276.875,314.345 276.539,315.700 276.753 C 315.865 276.779,316.000 276.620,316.000 276.400 C 316.000 276.180,316.900 276.000,318.000 276.000 C 319.100 276.000,320.000 275.843,320.000 275.652 C 320.000 275.460,321.256 275.180,322.791 275.028 C 324.326 274.877,325.686 274.584,325.814 274.377 C 325.942 274.170,326.442 273.997,326.924 273.994 C 327.881 273.987,330.620 273.113,331.059 272.674 C 331.210 272.523,331.743 272.400,332.243 272.400 C 332.743 272.400,333.264 272.220,333.400 272.000 C 333.536 271.780,334.087 271.600,334.624 271.600 C 335.161 271.600,335.600 271.420,335.600 271.200 C 335.600 270.980,336.050 270.800,336.600 270.800 C 337.150 270.800,337.600 270.620,337.600 270.400 C 337.600 270.180,338.050 270.000,338.600 270.000 C 339.150 270.000,339.600 269.856,339.600 269.680 C 339.600 269.505,340.230 269.133,341.000 268.854 C 341.770 268.576,342.400 268.180,342.400 267.974 C 342.400 267.768,342.673 267.600,343.007 267.600 C 343.693 267.600,348.800 262.649,348.800 261.984 C 348.800 261.747,348.980 261.664,349.200 261.800 C 349.420 261.936,349.600 261.759,349.600 261.407 C 349.600 261.055,349.932 260.410,350.338 259.975 C 351.464 258.765,353.600 254.409,353.600 253.320 C 353.600 252.777,353.775 252.461,354.000 252.600 C 354.241 252.749,354.400 252.212,354.400 251.247 C 354.400 250.367,354.580 249.536,354.800 249.400 C 355.290 249.097,355.361 204.947,354.871 204.644 C 354.691 204.532,354.106 204.677,353.571 204.965 " stroke="none" fill="#e3e3e3" fill-rule="evenodd"></path>
        <path id="path1" d="M55.200 4.000 C 55.200 4.220,54.966 4.400,54.680 4.400 C 53.944 4.400,52.007 5.341,52.003 5.700 C 52.001 5.865,51.712 6.000,51.360 6.000 C 50.564 6.000,47.397 9.307,46.712 10.853 C 46.433 11.484,46.069 12.000,45.902 12.000 C 45.736 12.000,45.600 12.529,45.600 13.176 C 45.600 13.823,45.420 14.464,45.200 14.600 C 44.645 14.943,44.645 385.057,45.200 385.400 C 45.420 385.536,45.600 386.177,45.600 386.824 C 45.600 387.471,45.736 388.000,45.902 388.000 C 46.069 388.000,46.433 388.516,46.712 389.147 C 47.397 390.693,50.564 394.000,51.360 394.000 C 51.712 394.000,52.001 394.135,52.003 394.300 C 52.007 394.659,53.944 395.600,54.680 395.600 C 54.966 395.600,55.200 395.780,55.200 396.000 C 55.200 396.532,63.471 396.532,63.800 396.000 C 63.936 395.780,64.487 395.600,65.024 395.600 C 65.561 395.600,66.000 395.420,66.000 395.200 C 66.000 394.980,66.262 394.800,66.583 394.800 C 67.665 394.800,72.022 390.274,73.129 388.000 L 74.200 385.800 74.400 323.338 C 74.510 288.984,74.470 260.956,74.312 261.054 C 74.153 261.153,73.916 260.804,73.784 260.279 C 73.218 258.024,73.380 35.183,73.948 34.832 C 75.097 34.122,74.333 14.231,73.063 11.789 C 71.957 9.663,67.568 5.200,66.583 5.200 C 66.262 5.200,66.000 5.020,66.000 4.800 C 66.000 4.580,65.651 4.400,65.224 4.400 C 64.797 4.400,64.336 4.220,64.200 4.000 C 64.060 3.773,62.063 3.600,59.576 3.600 C 56.925 3.600,55.200 3.758,55.200 4.000 " stroke="none" fill="#fccc64" fill-rule="evenodd"></path>
        <path id="path2" d="M119.692 19.200 C 118.687 20.137,114.809 20.374,114.788 19.500 C 114.781 19.225,114.572 19.360,114.322 19.800 C 113.623 21.032,113.124 21.246,111.500 21.009 C 110.611 20.880,110.000 20.955,110.000 21.195 C 110.000 21.418,109.209 21.600,108.243 21.600 C 106.998 21.600,106.414 21.787,106.239 22.242 C 106.062 22.703,105.706 22.813,104.980 22.631 C 104.307 22.462,103.751 22.592,103.324 23.019 C 102.965 23.377,102.330 23.570,101.888 23.455 C 101.452 23.341,100.830 23.513,100.506 23.837 C 100.172 24.171,99.586 24.322,99.158 24.187 C 98.737 24.053,98.400 24.136,98.400 24.373 C 98.400 24.608,97.961 24.800,97.424 24.800 C 96.887 24.800,96.336 24.980,96.200 25.200 C 96.064 25.420,95.533 25.600,95.019 25.600 C 94.506 25.600,93.983 25.867,93.858 26.193 C 93.733 26.520,93.372 26.687,93.056 26.566 C 92.740 26.445,92.362 26.538,92.217 26.773 C 92.072 27.008,91.513 27.200,90.976 27.200 C 90.439 27.200,90.000 27.380,90.000 27.600 C 90.000 27.820,89.747 28.000,89.438 28.000 C 89.129 28.000,88.184 28.341,87.338 28.758 C 86.492 29.175,83.505 30.646,80.700 32.027 C 77.895 33.408,75.600 34.702,75.600 34.903 C 75.600 35.103,75.375 35.191,75.100 35.098 C 73.675 34.618,73.626 35.591,73.613 64.308 L 73.600 92.416 75.100 91.611 C 75.925 91.168,77.500 90.267,78.600 89.609 C 84.964 85.799,96.832 80.971,104.000 79.275 C 104.990 79.041,106.250 78.730,106.800 78.584 C 107.350 78.438,108.745 78.157,109.900 77.959 C 111.055 77.762,113.035 77.418,114.300 77.195 C 116.935 76.731,122.382 76.104,126.900 75.744 L 130.000 75.497 130.000 103.349 L 130.000 131.200 136.879 131.200 C 145.122 131.200,150.171 131.746,163.000 134.026 C 169.306 135.146,179.231 137.348,183.700 138.617 L 185.600 139.157 185.600 111.421 C 185.600 88.916,185.699 83.648,186.124 83.484 C 186.639 83.287,187.899 83.653,200.400 87.628 C 203.810 88.713,208.400 90.161,210.600 90.848 C 212.800 91.534,214.960 92.234,215.400 92.402 C 215.840 92.571,217.010 92.930,218.000 93.200 C 218.990 93.470,220.160 93.830,220.600 94.000 C 221.040 94.170,222.210 94.530,223.200 94.800 C 224.190 95.070,225.360 95.436,225.800 95.612 C 226.240 95.789,227.050 96.050,227.600 96.194 C 228.150 96.337,229.140 96.606,229.800 96.792 C 231.856 97.372,235.509 98.375,237.700 98.963 C 238.855 99.272,240.115 99.651,240.500 99.806 C 241.163 100.071,241.200 98.574,241.200 71.692 C 241.200 42.182,241.218 42.516,239.600 42.505 C 239.270 42.502,238.460 42.373,237.800 42.218 C 236.896 42.005,236.748 42.040,237.200 42.362 C 237.694 42.713,237.634 42.789,236.857 42.794 C 236.207 42.798,235.982 42.624,236.132 42.233 C 236.252 41.921,236.076 41.561,235.742 41.433 C 234.822 41.080,234.324 41.153,234.600 41.600 C 234.741 41.828,234.396 42.000,233.800 42.000 C 233.204 42.000,232.859 41.828,233.000 41.600 C 233.149 41.358,232.604 41.200,231.624 41.200 C 230.731 41.200,230.000 41.020,230.000 40.800 C 230.000 40.580,229.370 40.400,228.600 40.400 C 227.830 40.400,227.200 40.220,227.200 40.000 C 227.200 39.780,226.660 39.600,226.000 39.600 C 225.032 39.600,224.794 39.426,224.768 38.700 C 224.751 38.205,224.646 38.025,224.535 38.300 C 224.296 38.892,222.400 38.981,222.400 38.400 C 222.400 38.180,221.770 38.000,221.000 38.000 C 220.230 38.000,219.600 37.817,219.600 37.592 C 219.600 37.358,219.177 37.291,218.604 37.435 C 217.889 37.614,217.536 37.500,217.356 37.031 C 217.202 36.629,216.836 36.462,216.409 36.597 C 215.606 36.852,214.320 36.454,214.581 36.030 C 214.678 35.873,214.249 35.819,213.626 35.911 C 213.004 36.002,212.373 35.880,212.224 35.638 C 212.075 35.397,211.508 35.200,210.964 35.200 C 210.420 35.200,209.872 34.931,209.746 34.603 C 209.591 34.199,209.207 34.083,208.562 34.245 C 207.898 34.412,207.533 34.290,207.362 33.845 C 207.191 33.401,206.826 33.279,206.164 33.445 C 205.397 33.637,205.135 33.481,204.816 32.642 C 204.412 31.580,203.918 31.200,204.100 32.091 C 204.155 32.360,203.795 32.643,203.300 32.718 C 202.696 32.811,202.400 32.653,202.400 32.238 C 202.400 31.771,202.120 31.676,201.253 31.849 C 200.247 32.051,200.072 31.939,199.822 30.945 C 199.575 29.960,199.486 29.903,199.149 30.506 C 198.607 31.475,198.061 31.372,197.527 30.200 C 197.131 29.331,195.831 28.694,196.100 29.500 C 196.155 29.665,196.065 29.845,195.900 29.900 C 195.735 29.955,195.604 29.906,195.608 29.792 C 195.625 29.382,194.625 28.533,194.126 28.533 C 193.459 28.533,190.394 27.623,189.505 27.161 C 189.123 26.962,188.478 26.800,188.072 26.800 C 187.666 26.800,187.209 26.675,187.056 26.523 C 185.365 24.832,185.394 24.318,185.508 54.618 L 185.616 83.200 184.708 83.196 C 184.209 83.193,182.900 82.913,181.800 82.573 C 180.700 82.233,178.180 81.592,176.200 81.148 C 174.220 80.704,171.880 80.173,171.000 79.969 C 170.120 79.765,168.410 79.402,167.200 79.162 C 165.990 78.922,164.190 78.562,163.200 78.361 C 155.056 76.712,145.452 75.656,136.000 75.371 L 129.800 75.184 129.697 46.792 L 129.595 18.400 128.021 18.400 C 127.155 18.400,126.336 18.580,126.200 18.800 C 126.064 19.020,125.018 19.197,123.876 19.194 C 122.388 19.189,121.970 19.078,122.400 18.800 C 122.859 18.503,122.713 18.411,121.775 18.406 C 121.097 18.403,120.168 18.757,119.692 19.200 M342.800 41.556 C 342.800 41.751,342.575 41.898,342.300 41.881 C 341.312 41.823,338.378 42.512,338.168 42.853 C 338.049 43.044,337.524 43.200,337.000 43.200 C 336.476 43.200,335.936 43.380,335.800 43.600 C 335.664 43.820,335.203 44.000,334.776 44.000 C 334.349 44.000,334.000 44.180,334.000 44.400 C 334.000 44.620,333.460 44.800,332.800 44.800 C 332.140 44.800,331.600 44.980,331.600 45.200 C 331.600 45.420,331.060 45.600,330.400 45.600 C 329.740 45.600,329.200 45.780,329.200 46.000 C 329.200 46.220,328.660 46.400,328.000 46.400 C 327.340 46.400,326.800 46.580,326.800 46.800 C 326.800 47.020,326.170 47.200,325.400 47.200 C 324.630 47.200,324.000 47.380,324.000 47.600 C 324.000 47.820,323.381 48.000,322.624 48.000 C 321.867 48.000,321.136 48.180,321.000 48.400 C 320.864 48.620,320.043 48.800,319.176 48.800 C 318.309 48.800,317.600 48.980,317.600 49.200 C 317.600 49.420,316.700 49.600,315.600 49.600 C 314.500 49.600,313.600 49.780,313.600 50.000 C 313.600 50.226,312.467 50.400,311.000 50.400 C 309.533 50.400,308.400 50.574,308.400 50.800 C 308.400 51.048,306.267 51.200,302.800 51.200 C 297.904 51.200,296.005 51.535,297.700 52.100 C 298.092 52.231,298.223 58.322,298.308 80.382 L 298.416 108.497 299.547 108.271 C 300.169 108.146,302.100 107.940,303.839 107.812 C 308.001 107.506,316.046 106.354,319.600 105.554 C 327.644 103.745,337.200 100.451,343.200 97.418 C 346.530 95.735,351.489 92.927,352.900 91.926 L 354.000 91.146 354.000 70.005 C 354.000 49.508,354.082 47.356,354.842 47.826 C 355.447 48.200,355.246 47.449,354.154 45.257 C 352.708 42.355,350.364 41.200,345.925 41.200 C 344.206 41.200,342.800 41.360,342.800 41.556 M242.097 128.884 L 242.200 156.567 243.600 156.905 C 244.370 157.090,245.720 157.424,246.600 157.646 C 247.480 157.868,248.740 158.140,249.400 158.252 C 250.060 158.363,250.960 158.610,251.400 158.800 C 251.840 158.990,252.740 159.240,253.400 159.355 C 254.526 159.551,255.628 159.786,260.300 160.821 C 263.084 161.438,268.928 162.479,273.600 163.190 C 278.617 163.953,286.253 164.529,291.800 164.565 L 297.400 164.600 297.503 136.734 L 297.605 108.869 289.103 108.654 C 281.225 108.454,278.534 108.233,271.600 107.214 C 267.825 106.659,262.952 105.755,258.800 104.840 C 257.810 104.622,256.460 104.328,255.800 104.188 C 255.140 104.048,252.044 103.319,248.920 102.567 C 245.796 101.815,242.959 101.200,242.617 101.200 C 242.059 101.200,242.005 104.053,242.097 128.884 M124.600 132.223 C 124.160 132.286,121.910 132.550,119.600 132.810 C 112.254 133.638,101.507 136.064,96.600 138.003 C 96.160 138.177,95.170 138.536,94.400 138.800 C 92.472 139.462,91.683 139.774,89.600 140.695 C 86.348 142.133,77.842 146.426,75.700 147.710 L 73.600 148.969 73.600 176.731 L 73.600 204.492 74.618 203.825 C 78.630 201.197,85.766 197.528,90.700 195.559 C 92.987 194.646,93.850 194.281,94.495 193.953 C 94.877 193.759,95.541 193.600,95.971 193.600 C 96.401 193.600,96.864 193.420,97.000 193.200 C 97.136 192.980,97.676 192.800,98.200 192.800 C 98.724 192.800,99.251 192.641,99.371 192.446 C 99.492 192.251,100.087 191.993,100.695 191.871 C 101.794 191.650,103.943 191.134,107.000 190.356 C 107.880 190.132,109.590 189.789,110.800 189.594 C 112.010 189.399,114.260 189.036,115.800 188.786 C 117.340 188.537,121.030 188.123,124.000 187.866 L 129.400 187.400 129.503 159.700 L 129.605 132.000 127.503 132.054 C 126.346 132.084,125.040 132.160,124.600 132.223 M185.600 167.730 C 185.600 183.032,185.455 195.642,185.278 195.752 C 185.101 195.861,184.246 195.770,183.378 195.549 C 181.923 195.178,181.181 194.995,177.200 194.021 C 173.242 193.053,169.022 192.123,166.000 191.552 C 164.790 191.323,162.900 190.964,161.800 190.753 C 159.524 190.316,155.886 189.748,151.800 189.192 C 147.563 188.615,132.910 187.890,131.362 188.181 L 130.000 188.436 130.000 216.218 C 130.000 234.473,129.863 244.000,129.600 244.000 C 129.380 244.000,129.200 244.180,129.200 244.400 C 129.200 244.654,132.275 244.800,137.624 244.800 C 143.137 244.800,145.962 244.938,145.800 245.200 C 145.642 245.455,146.863 245.600,149.176 245.600 C 151.325 245.600,152.800 245.763,152.800 246.000 C 152.800 246.229,154.000 246.400,155.600 246.400 C 157.200 246.400,158.400 246.571,158.400 246.800 C 158.400 247.020,159.199 247.200,160.176 247.200 C 161.153 247.200,162.064 247.380,162.200 247.600 C 162.336 247.820,163.236 248.000,164.200 248.000 C 165.164 248.000,166.064 248.180,166.200 248.400 C 166.336 248.620,167.247 248.800,168.224 248.800 C 169.201 248.800,170.000 248.980,170.000 249.200 C 170.000 249.420,170.709 249.600,171.576 249.600 C 172.443 249.600,173.264 249.780,173.400 250.000 C 173.536 250.220,174.357 250.400,175.224 250.400 C 176.091 250.400,176.800 250.580,176.800 250.800 C 176.800 251.020,177.520 251.200,178.400 251.200 C 179.280 251.200,180.000 251.380,180.000 251.600 C 180.000 251.820,180.619 252.000,181.376 252.000 C 182.133 252.000,182.864 252.180,183.000 252.400 C 183.136 252.620,183.777 252.800,184.424 252.800 L 185.600 252.800 185.606 224.900 C 185.610 208.775,185.766 196.756,185.977 196.423 C 186.290 195.929,186.736 195.972,189.071 196.724 C 191.946 197.649,197.844 199.507,207.800 202.622 C 211.100 203.654,214.790 204.813,216.000 205.196 C 217.210 205.579,219.010 206.117,220.000 206.392 C 220.990 206.667,222.160 207.029,222.600 207.198 C 223.040 207.367,224.750 207.908,226.400 208.401 C 228.050 208.893,229.850 209.434,230.400 209.602 C 230.950 209.770,232.210 210.127,233.200 210.395 C 234.190 210.664,235.413 211.045,235.919 211.242 C 236.424 211.439,237.269 211.600,237.795 211.600 C 238.322 211.600,238.864 211.780,239.000 212.000 C 239.136 212.220,239.687 212.400,240.224 212.400 L 241.200 212.400 241.200 184.608 L 241.200 156.815 240.100 156.565 C 239.495 156.427,237.470 155.822,235.600 155.220 C 233.730 154.619,231.030 153.754,229.600 153.298 C 226.763 152.393,215.728 148.952,213.800 148.370 C 213.140 148.172,210.980 147.493,209.000 146.863 C 207.020 146.233,204.050 145.309,202.400 144.810 C 200.750 144.312,198.950 143.766,198.400 143.598 C 197.850 143.430,196.590 143.071,195.600 142.801 C 194.610 142.530,193.440 142.163,193.000 141.985 C 192.560 141.806,191.750 141.569,191.200 141.458 C 190.257 141.267,188.534 140.799,186.500 140.180 L 185.600 139.907 185.600 167.730 M351.105 150.186 C 348.628 151.680,341.932 155.128,339.500 156.162 C 338.675 156.513,337.415 157.055,336.700 157.367 C 335.985 157.679,334.680 158.165,333.800 158.448 C 332.920 158.732,332.029 159.107,331.820 159.282 C 331.611 159.457,331.114 159.600,330.715 159.600 C 330.316 159.600,329.677 159.762,329.295 159.961 C 328.913 160.160,327.790 160.540,326.800 160.807 C 325.810 161.074,324.550 161.430,324.000 161.597 C 322.604 162.021,318.599 162.833,312.400 163.950 C 311.190 164.167,307.545 164.573,304.300 164.850 L 298.400 165.355 298.400 193.078 L 298.400 220.800 299.700 220.797 C 307.662 220.775,326.565 216.832,334.300 213.579 C 334.795 213.370,335.650 213.020,336.200 212.800 C 338.538 211.865,339.258 211.533,344.400 209.021 C 347.370 207.570,350.700 205.864,351.800 205.230 L 353.800 204.078 353.903 176.439 C 353.959 161.237,353.869 148.800,353.703 148.801 C 353.536 148.802,352.367 149.425,351.105 150.186 M242.000 241.120 C 242.000 261.126,241.876 268.764,241.546 269.094 C 240.869 269.771,242.076 270.800,243.548 270.800 C 244.211 270.800,244.864 270.980,245.000 271.200 C 245.136 271.420,245.867 271.600,246.624 271.600 C 247.381 271.600,248.000 271.780,248.000 272.000 C 248.000 272.220,248.709 272.400,249.576 272.400 C 250.443 272.400,251.252 272.561,251.374 272.758 C 251.581 273.093,252.214 273.227,256.500 273.845 C 257.435 273.980,258.394 274.246,258.632 274.437 C 258.869 274.629,260.624 274.905,262.532 275.051 C 264.439 275.198,266.000 275.471,266.000 275.659 C 266.000 275.847,267.080 276.000,268.400 276.000 C 269.733 276.000,270.800 276.178,270.800 276.400 C 270.800 276.625,271.925 276.800,273.376 276.800 C 274.793 276.800,276.064 276.980,276.200 277.200 C 276.339 277.425,278.271 277.600,280.624 277.600 C 283.141 277.600,284.800 277.759,284.800 278.000 C 284.800 278.251,287.281 278.400,291.443 278.400 C 297.336 278.400,298.058 278.329,297.843 277.767 C 297.709 277.419,297.600 264.666,297.600 249.426 L 297.600 221.718 289.300 221.451 C 280.307 221.161,277.922 220.912,267.300 219.153 C 263.138 218.464,251.908 216.048,246.873 214.759 C 244.383 214.122,242.268 213.600,242.173 213.600 C 242.078 213.600,242.000 225.984,242.000 241.120 " stroke="none" fill="#646464" fill-rule="evenodd"></path>
        <path id="path3" d="M129.697 46.513 C 129.620 68.878,129.705 74.859,130.100 74.988 C 130.375 75.078,134.200 75.212,138.600 75.287 C 143.000 75.361,145.880 75.292,145.000 75.134 C 144.120 74.976,140.386 74.836,136.703 74.823 L 130.005 74.800 129.900 46.500 L 129.795 18.200 129.697 46.513 M110.800 20.400 C 110.800 20.620,111.160 20.800,111.600 20.800 C 112.040 20.800,112.400 20.620,112.400 20.400 C 112.400 20.180,112.040 20.000,111.600 20.000 C 111.160 20.000,110.800 20.180,110.800 20.400 M103.600 22.000 C 103.600 22.220,103.960 22.400,104.400 22.400 C 104.840 22.400,105.200 22.220,105.200 22.000 C 105.200 21.780,104.840 21.600,104.400 21.600 C 103.960 21.600,103.600 21.780,103.600 22.000 M101.200 22.800 C 101.200 23.020,101.470 23.200,101.800 23.200 C 102.130 23.200,102.400 23.020,102.400 22.800 C 102.400 22.580,102.130 22.400,101.800 22.400 C 101.470 22.400,101.200 22.580,101.200 22.800 M98.800 23.600 C 98.800 23.820,99.070 24.000,99.400 24.000 C 99.730 24.000,100.000 23.820,100.000 23.600 C 100.000 23.380,99.730 23.200,99.400 23.200 C 99.070 23.200,98.800 23.380,98.800 23.600 M95.851 24.317 C 95.744 24.491,96.003 24.660,96.428 24.692 C 96.852 24.724,97.200 24.581,97.200 24.375 C 97.200 23.920,96.125 23.873,95.851 24.317 M92.800 25.473 C 92.470 25.588,91.522 26.023,90.692 26.439 C 89.863 26.855,88.986 27.151,88.742 27.097 C 88.499 27.044,88.218 27.225,88.117 27.500 C 87.900 28.092,89.041 28.181,89.400 27.600 C 89.536 27.380,89.997 27.200,90.424 27.200 C 90.851 27.200,91.200 27.020,91.200 26.800 C 91.200 26.580,91.631 26.400,92.157 26.400 C 92.684 26.400,93.218 26.130,93.345 25.800 C 93.471 25.470,93.536 25.214,93.487 25.232 C 93.439 25.249,93.130 25.357,92.800 25.473 M210.600 34.400 C 210.464 34.620,210.723 34.800,211.176 34.800 C 211.629 34.800,212.000 34.620,212.000 34.400 C 212.000 34.180,211.741 34.000,211.424 34.000 C 211.107 34.000,210.736 34.180,210.600 34.400 M213.200 35.200 C 213.200 35.420,213.470 35.600,213.800 35.600 C 214.130 35.600,214.400 35.420,214.400 35.200 C 214.400 34.980,214.130 34.800,213.800 34.800 C 213.470 34.800,213.200 34.980,213.200 35.200 M73.396 64.467 C 73.399 86.882,73.506 92.969,73.900 93.100 C 74.175 93.192,74.400 93.061,74.400 92.810 C 74.400 92.558,74.221 92.463,74.003 92.598 C 73.741 92.760,73.569 83.114,73.499 64.422 L 73.392 36.000 73.396 64.467 M218.400 36.800 C 218.400 37.020,218.771 37.200,219.224 37.200 C 219.677 37.200,219.936 37.020,219.800 36.800 C 219.664 36.580,219.293 36.400,218.976 36.400 C 218.659 36.400,218.400 36.580,218.400 36.800 M228.400 40.000 C 228.400 40.220,228.760 40.400,229.200 40.400 C 229.640 40.400,230.000 40.220,230.000 40.000 C 230.000 39.780,229.640 39.600,229.200 39.600 C 228.760 39.600,228.400 39.780,228.400 40.000 M241.600 71.600 L 241.600 100.000 240.700 100.046 C 240.023 100.081,239.973 100.138,240.500 100.276 C 241.157 100.447,241.206 102.179,241.297 128.529 L 241.394 156.600 241.500 128.700 L 241.605 100.800 242.503 100.754 C 243.196 100.718,243.238 100.665,242.690 100.522 C 242.016 100.347,241.985 98.850,242.090 71.769 C 242.150 56.056,242.065 43.200,241.900 43.200 C 241.735 43.200,241.600 55.980,241.600 71.600 M297.697 80.688 L 297.600 108.375 292.700 108.501 L 287.800 108.627 292.900 108.714 L 298.000 108.800 298.000 136.800 L 298.000 164.800 291.700 164.889 L 285.400 164.978 291.500 165.099 L 297.600 165.221 297.600 193.010 L 297.600 220.800 290.100 220.887 L 282.600 220.973 290.200 221.187 L 297.800 221.400 298.007 249.800 C 298.120 265.420,298.255 278.245,298.307 278.300 C 298.718 278.741,299.228 278.316,298.844 277.853 C 298.512 277.453,298.418 269.742,298.495 249.252 C 298.554 233.476,298.447 221.149,298.250 221.083 C 298.051 221.017,298.029 196.869,298.200 164.883 L 298.499 108.800 300.549 108.770 C 301.677 108.754,303.410 108.595,304.400 108.416 C 305.576 108.204,304.780 108.166,302.103 108.306 L 298.006 108.520 297.900 80.760 L 297.794 53.000 297.697 80.688 M147.633 75.744 C 147.725 75.823,149.060 75.989,150.600 76.113 C 152.292 76.249,153.084 76.203,152.600 75.997 C 151.839 75.673,147.283 75.441,147.633 75.744 M123.000 76.400 L 120.600 76.666 122.800 76.698 C 124.010 76.715,125.900 76.590,127.000 76.418 L 129.000 76.107 127.200 76.121 C 126.210 76.128,124.320 76.254,123.000 76.400 M154.033 76.544 C 154.125 76.623,155.190 76.789,156.400 76.912 C 157.769 77.051,158.298 77.008,157.800 76.796 C 157.033 76.470,153.689 76.247,154.033 76.544 M129.697 103.900 L 129.600 131.200 127.900 131.230 C 126.965 131.246,125.390 131.416,124.400 131.607 C 123.056 131.867,123.487 131.901,126.100 131.742 L 129.600 131.528 129.600 159.540 L 129.600 187.551 127.900 187.775 C 126.965 187.899,125.480 188.066,124.600 188.147 C 123.720 188.228,124.440 188.289,126.200 188.283 L 129.400 188.271 129.604 215.636 L 129.808 243.000 129.912 215.400 C 129.969 200.220,130.009 175.126,130.000 159.636 L 129.985 131.473 137.692 131.671 C 141.932 131.779,144.140 131.740,142.600 131.584 C 141.060 131.427,137.596 131.277,134.903 131.250 L 130.006 131.200 129.900 103.900 L 129.794 76.600 129.697 103.900 M115.105 77.483 C 115.602 77.579,116.322 77.575,116.705 77.475 C 117.087 77.375,116.680 77.296,115.800 77.301 C 114.920 77.305,114.607 77.387,115.105 77.483 M160.033 77.347 C 160.125 77.428,160.920 77.604,161.800 77.738 C 162.915 77.907,163.158 77.871,162.600 77.619 C 161.832 77.271,159.690 77.044,160.033 77.347 M111.000 78.000 L 109.400 78.286 110.800 78.303 C 111.570 78.313,112.650 78.176,113.200 78.000 C 114.485 77.588,113.299 77.588,111.000 78.000 M164.033 78.147 C 164.125 78.228,164.920 78.404,165.800 78.538 C 166.915 78.707,167.158 78.671,166.600 78.419 C 165.832 78.071,163.690 77.844,164.033 78.147 M168.033 78.943 C 168.125 79.021,168.830 79.201,169.600 79.342 C 170.585 79.523,170.822 79.482,170.400 79.206 C 169.858 78.850,167.637 78.603,168.033 78.943 M101.066 80.274 C 100.003 80.600,99.203 80.936,99.290 81.023 C 99.376 81.109,100.606 80.838,102.023 80.421 C 103.441 80.003,104.240 79.666,103.800 79.672 C 103.360 79.678,102.130 79.949,101.066 80.274 M172.600 80.000 C 173.796 80.514,174.795 80.514,174.000 80.000 C 173.670 79.787,173.040 79.622,172.600 79.634 L 171.800 79.656 172.600 80.000 M175.233 80.544 C 175.325 80.623,175.940 80.808,176.600 80.956 C 177.476 81.152,177.638 81.115,177.200 80.818 C 176.660 80.453,174.832 80.198,175.233 80.544 M179.400 81.600 C 179.840 81.789,180.470 81.944,180.800 81.944 C 181.178 81.944,181.104 81.817,180.600 81.600 C 180.160 81.411,179.530 81.256,179.200 81.256 C 178.822 81.256,178.896 81.383,179.400 81.600 M185.903 111.500 C 185.804 138.396,185.773 139.395,185.060 139.273 C 184.643 139.202,184.428 139.322,184.568 139.548 C 184.704 139.769,185.127 139.928,185.508 139.901 C 185.889 139.875,186.740 139.982,187.400 140.139 C 188.270 140.346,188.435 140.313,188.000 140.018 C 187.670 139.795,187.130 139.610,186.800 139.606 C 186.271 139.601,186.213 136.288,186.305 111.794 L 186.411 83.987 187.505 84.226 C 188.349 84.410,188.462 84.367,188.000 84.038 C 185.914 82.557,186.014 81.247,185.903 111.500 M191.800 85.600 C 192.240 85.789,192.870 85.944,193.200 85.944 C 193.578 85.944,193.504 85.817,193.000 85.600 C 192.560 85.411,191.930 85.256,191.600 85.256 C 191.222 85.256,191.296 85.383,191.800 85.600 M194.400 86.400 C 194.730 86.613,195.270 86.788,195.600 86.788 C 196.133 86.788,196.133 86.745,195.600 86.400 C 195.270 86.187,194.730 86.012,194.400 86.012 C 193.867 86.012,193.867 86.055,194.400 86.400 M81.500 88.229 C 80.005 89.040,80.096 89.378,81.600 88.600 C 82.260 88.259,82.800 87.894,82.800 87.790 C 82.800 87.532,82.757 87.547,81.500 88.229 M202.000 88.800 C 202.330 89.013,202.870 89.188,203.200 89.188 C 203.733 89.188,203.733 89.145,203.200 88.800 C 202.870 88.587,202.330 88.412,202.000 88.412 C 201.467 88.412,201.467 88.455,202.000 88.800 M76.400 91.200 C 75.410 91.858,74.739 92.397,74.909 92.398 C 75.257 92.400,78.400 90.374,78.400 90.147 C 78.400 89.892,78.242 89.975,76.400 91.200 M353.810 91.724 C 351.525 93.101,350.257 93.999,350.607 93.991 C 350.823 93.986,351.450 93.630,352.000 93.200 C 352.550 92.770,353.180 92.408,353.400 92.396 C 353.620 92.384,354.149 92.110,354.576 91.787 C 355.499 91.089,354.939 91.043,353.810 91.724 M217.200 93.582 C 217.530 93.805,218.145 93.991,218.567 93.994 C 219.590 94.002,219.271 93.773,217.800 93.444 C 216.924 93.248,216.762 93.285,217.200 93.582 M219.600 94.146 C 219.600 94.373,223.436 95.604,224.075 95.582 C 224.364 95.573,223.907 95.318,223.059 95.016 C 221.093 94.315,219.600 93.939,219.600 94.146 M348.000 95.236 C 347.336 95.779,347.269 95.915,347.800 95.640 C 349.105 94.966,349.828 94.412,349.400 94.415 C 349.180 94.417,348.550 94.786,348.000 95.236 M225.633 96.144 C 225.725 96.223,226.340 96.408,227.000 96.556 C 227.876 96.752,228.038 96.715,227.600 96.418 C 227.060 96.053,225.232 95.798,225.633 96.144 M228.433 96.944 C 228.525 97.023,229.140 97.208,229.800 97.356 C 230.676 97.552,230.838 97.515,230.400 97.218 C 229.860 96.853,228.032 96.598,228.433 96.944 M343.693 97.380 C 342.439 98.072,342.062 98.501,343.012 98.155 C 343.998 97.795,345.514 96.786,344.989 96.839 C 344.775 96.861,344.192 97.104,343.693 97.380 M234.600 98.800 C 235.796 99.314,236.795 99.314,236.000 98.800 C 235.670 98.587,235.040 98.422,234.600 98.434 L 233.800 98.456 234.600 98.800 M236.833 99.344 C 236.925 99.423,237.540 99.608,238.200 99.756 C 239.076 99.952,239.238 99.915,238.800 99.618 C 238.260 99.253,236.432 98.998,236.833 99.344 M244.600 101.200 C 245.040 101.389,245.670 101.544,246.000 101.544 C 246.378 101.544,246.304 101.417,245.800 101.200 C 245.360 101.011,244.730 100.856,244.400 100.856 C 244.022 100.856,244.096 100.983,244.600 101.200 M251.000 102.800 C 251.440 102.989,252.160 103.138,252.600 103.132 C 253.243 103.123,253.204 103.057,252.400 102.800 C 251.032 102.362,249.981 102.362,251.000 102.800 M254.200 103.600 C 254.640 103.789,255.360 103.938,255.800 103.932 C 256.443 103.923,256.404 103.857,255.600 103.600 C 254.232 103.162,253.181 103.162,254.200 103.600 M258.200 104.381 C 258.968 104.729,261.110 104.956,260.767 104.653 C 260.675 104.572,259.880 104.396,259.000 104.262 C 257.885 104.093,257.642 104.129,258.200 104.381 M325.400 104.400 C 324.629 104.731,324.631 104.745,325.476 104.772 C 325.958 104.787,326.464 104.620,326.600 104.400 C 326.892 103.927,326.501 103.927,325.400 104.400 M261.800 105.190 C 262.564 105.528,265.114 105.757,264.767 105.456 C 264.675 105.376,263.790 105.204,262.800 105.073 C 261.598 104.914,261.266 104.953,261.800 105.190 M319.200 106.000 C 318.376 106.264,318.341 106.326,319.000 106.354 C 319.440 106.373,320.070 106.213,320.400 106.000 C 321.101 105.547,320.614 105.547,319.200 106.000 M314.600 106.800 L 313.400 107.105 314.600 107.147 C 315.260 107.169,316.070 107.013,316.400 106.800 C 317.143 106.320,316.487 106.320,314.600 106.800 M271.633 106.944 C 271.725 107.024,272.880 107.189,274.200 107.312 C 275.691 107.451,276.221 107.411,275.600 107.207 C 274.612 106.884,271.311 106.665,271.633 106.944 M309.000 107.600 L 307.400 107.886 309.000 107.903 C 309.880 107.913,311.050 107.776,311.600 107.600 L 312.600 107.280 311.600 107.297 C 311.050 107.306,309.880 107.442,309.000 107.600 M278.307 107.890 C 279.026 107.979,280.106 107.977,280.707 107.886 C 281.308 107.795,280.720 107.722,279.400 107.724 C 278.080 107.726,277.588 107.801,278.307 107.890 M282.705 108.283 C 283.202 108.379,283.922 108.375,284.305 108.275 C 284.687 108.175,284.280 108.096,283.400 108.101 C 282.520 108.105,282.207 108.187,282.705 108.283 M117.400 132.400 C 115.634 132.849,117.645 132.869,119.800 132.423 L 121.400 132.092 120.000 132.093 C 119.230 132.094,118.060 132.232,117.400 132.400 M146.433 132.144 C 146.525 132.224,147.950 132.385,149.600 132.503 C 151.358 132.628,152.103 132.588,151.400 132.406 C 150.187 132.091,146.125 131.878,146.433 132.144 M112.400 133.200 L 111.400 133.520 112.400 133.520 C 112.950 133.520,113.850 133.376,114.400 133.200 L 115.400 132.880 114.400 132.880 C 113.850 132.880,112.950 133.024,112.400 133.200 M153.233 132.950 C 153.325 133.032,154.480 133.200,155.800 133.323 C 157.378 133.470,157.789 133.435,157.000 133.220 C 155.766 132.885,152.936 132.682,153.233 132.950 M108.600 134.000 C 107.581 134.438,108.632 134.438,110.000 134.000 C 110.804 133.743,110.843 133.677,110.200 133.668 C 109.760 133.662,109.040 133.811,108.600 134.000 M160.000 134.000 C 160.550 134.176,161.360 134.326,161.800 134.332 L 162.600 134.344 161.800 134.000 C 161.360 133.811,160.550 133.662,160.000 133.668 L 159.000 133.680 160.000 134.000 M105.400 134.800 C 104.896 135.017,104.822 135.144,105.200 135.144 C 105.530 135.144,106.160 134.989,106.600 134.800 C 107.104 134.583,107.178 134.456,106.800 134.456 C 106.470 134.456,105.840 134.611,105.400 134.800 M164.400 134.800 C 165.768 135.238,166.819 135.238,165.800 134.800 C 165.360 134.611,164.640 134.462,164.200 134.468 C 163.557 134.477,163.596 134.543,164.400 134.800 M168.200 135.581 C 168.968 135.929,171.110 136.156,170.767 135.853 C 170.675 135.772,169.880 135.596,169.000 135.462 C 167.885 135.293,167.642 135.329,168.200 135.581 M99.400 136.400 L 98.600 136.744 99.400 136.766 C 99.840 136.778,100.470 136.613,100.800 136.400 C 101.595 135.886,100.596 135.886,99.400 136.400 M172.000 136.400 C 172.330 136.613,172.960 136.778,173.400 136.766 L 174.200 136.744 173.400 136.400 C 172.204 135.886,171.205 135.886,172.000 136.400 M175.400 137.200 C 175.840 137.389,176.470 137.544,176.800 137.544 C 177.178 137.544,177.104 137.417,176.600 137.200 C 176.160 137.011,175.530 136.856,175.200 136.856 C 174.822 136.856,174.896 136.983,175.400 137.200 M93.800 138.368 C 90.434 139.611,89.600 139.972,89.600 140.184 C 89.600 140.296,90.545 140.006,91.700 139.539 C 92.855 139.072,94.208 138.603,94.706 138.497 C 95.204 138.391,95.710 138.146,95.830 137.952 C 96.105 137.506,96.168 137.493,93.800 138.368 M178.800 138.000 C 179.130 138.213,179.760 138.378,180.200 138.366 L 181.000 138.344 180.200 138.000 C 179.004 137.486,178.005 137.486,178.800 138.000 M182.000 138.800 C 182.330 139.013,182.870 139.188,183.200 139.188 C 183.733 139.188,183.733 139.145,183.200 138.800 C 182.870 138.587,182.330 138.412,182.000 138.412 C 181.467 138.412,181.467 138.455,182.000 138.800 M87.293 140.980 C 86.047 141.668,85.656 142.106,86.612 141.743 C 88.103 141.175,89.399 140.405,88.800 140.442 C 88.470 140.462,87.792 140.704,87.293 140.980 M188.833 140.544 C 188.925 140.623,189.540 140.808,190.200 140.956 C 191.076 141.152,191.238 141.115,190.800 140.818 C 190.260 140.453,188.432 140.198,188.833 140.544 M191.633 141.344 C 191.725 141.423,192.340 141.608,193.000 141.756 C 193.876 141.952,194.038 141.915,193.600 141.618 C 193.060 141.253,191.232 140.998,191.633 141.344 M83.900 142.629 C 82.349 143.470,82.525 143.761,84.100 142.959 C 85.608 142.193,85.875 141.994,85.367 142.016 C 85.165 142.025,84.505 142.301,83.900 142.629 M194.433 142.144 C 194.525 142.223,195.140 142.408,195.800 142.556 C 196.676 142.752,196.838 142.715,196.400 142.418 C 195.860 142.053,194.032 141.798,194.433 142.144 M197.233 142.944 C 197.325 143.023,197.940 143.208,198.600 143.356 C 199.476 143.552,199.638 143.515,199.200 143.218 C 198.660 142.853,196.832 142.598,197.233 142.944 M80.400 144.433 L 79.400 145.248 80.800 144.573 C 82.512 143.748,82.694 143.597,81.967 143.609 C 81.655 143.614,80.950 143.985,80.400 144.433 M205.800 145.600 C 206.901 146.073,207.292 146.073,207.000 145.600 C 206.864 145.380,206.358 145.213,205.876 145.228 C 205.031 145.255,205.029 145.269,205.800 145.600 M76.000 146.833 L 75.000 147.648 76.300 147.014 C 77.015 146.665,77.600 146.294,77.600 146.190 C 77.600 145.792,76.963 146.048,76.000 146.833 M353.100 148.229 C 352.495 148.557,352.000 148.901,352.000 148.992 C 352.000 149.162,354.862 148.046,355.167 147.758 C 355.595 147.352,354.080 147.697,353.100 148.229 M73.297 176.476 C 73.232 195.271,73.334 204.436,73.612 204.607 C 73.998 204.846,77.600 203.002,77.600 202.566 C 77.600 202.456,76.819 202.824,75.865 203.383 C 74.911 203.942,74.012 204.400,73.868 204.400 C 73.723 204.400,73.558 191.845,73.500 176.500 L 73.394 148.600 73.297 176.476 M221.200 150.400 C 221.530 150.613,222.070 150.788,222.400 150.788 C 222.933 150.788,222.933 150.745,222.400 150.400 C 222.070 150.187,221.530 150.012,221.200 150.012 C 220.667 150.012,220.667 150.055,221.200 150.400 M349.100 150.629 C 347.605 151.440,347.696 151.778,349.200 151.000 C 349.860 150.659,350.400 150.294,350.400 150.190 C 350.400 149.932,350.357 149.947,349.100 150.629 M228.800 152.800 C 229.130 153.013,229.760 153.178,230.200 153.166 L 231.000 153.144 230.200 152.800 C 229.004 152.286,228.005 152.286,228.800 152.800 M234.000 154.341 C 234.330 154.534,235.140 154.809,235.800 154.952 C 236.568 155.118,236.784 155.084,236.400 154.859 C 236.070 154.666,235.260 154.391,234.600 154.248 C 233.832 154.082,233.616 154.116,234.000 154.341 M241.503 184.700 L 241.400 212.600 240.000 212.516 L 238.600 212.433 239.900 212.828 L 241.200 213.223 241.274 241.111 C 241.334 263.816,241.417 258.628,241.722 213.200 C 241.995 172.549,242.219 157.320,242.548 157.106 C 242.834 156.920,242.744 156.810,242.303 156.806 C 241.647 156.800,241.599 158.473,241.503 184.700 M244.000 157.582 C 244.330 157.805,244.945 157.991,245.367 157.994 C 246.390 158.002,246.071 157.773,244.600 157.444 C 243.724 157.248,243.562 157.285,244.000 157.582 M334.600 157.485 C 333.375 157.780,332.998 158.328,334.176 158.103 C 334.746 157.994,335.310 157.746,335.430 157.552 C 335.549 157.359,335.592 157.221,335.524 157.246 C 335.456 157.272,335.040 157.379,334.600 157.485 M247.000 158.400 C 247.440 158.589,248.160 158.738,248.600 158.732 C 249.243 158.723,249.204 158.657,248.400 158.400 C 247.032 157.962,245.981 157.962,247.000 158.400 M250.400 159.194 C 250.730 159.411,251.435 159.591,251.967 159.594 C 253.251 159.602,252.925 159.375,251.200 159.058 C 250.215 158.877,249.978 158.918,250.400 159.194 M253.600 160.000 C 253.930 160.213,254.650 160.373,255.200 160.354 L 256.200 160.320 255.200 160.000 C 253.658 159.506,252.836 159.506,253.600 160.000 M326.000 160.418 C 325.562 160.715,325.724 160.752,326.600 160.556 C 328.071 160.227,328.390 159.998,327.367 160.006 C 326.945 160.009,326.330 160.195,326.000 160.418 M322.800 161.200 C 322.005 161.714,323.004 161.714,324.200 161.200 L 325.000 160.856 324.200 160.834 C 323.760 160.822,323.130 160.987,322.800 161.200 M261.000 161.590 C 261.764 161.928,264.314 162.157,263.967 161.856 C 263.875 161.776,262.990 161.604,262.000 161.473 C 260.798 161.314,260.466 161.353,261.000 161.590 M319.600 162.018 C 319.162 162.315,319.324 162.352,320.200 162.156 C 321.671 161.827,321.990 161.598,320.967 161.606 C 320.545 161.609,319.930 161.795,319.600 162.018 M315.400 162.800 C 314.381 163.238,315.432 163.238,316.800 162.800 C 317.604 162.543,317.643 162.477,317.000 162.468 C 316.560 162.462,315.840 162.611,315.400 162.800 M270.433 163.347 C 270.525 163.428,271.770 163.593,273.200 163.715 C 274.838 163.854,275.356 163.818,274.600 163.615 C 273.378 163.289,270.130 163.080,270.433 163.347 M310.000 163.600 L 309.000 163.920 310.000 163.913 C 310.550 163.909,311.540 163.768,312.200 163.600 L 313.400 163.295 312.200 163.287 C 311.540 163.283,310.550 163.424,310.000 163.600 M276.900 164.287 C 277.505 164.378,278.495 164.378,279.100 164.287 C 279.705 164.195,279.210 164.120,278.000 164.120 C 276.790 164.120,276.295 164.195,276.900 164.287 M302.000 164.400 C 299.811 164.668,299.809 164.670,301.600 164.700 C 302.590 164.716,304.300 164.590,305.400 164.418 C 308.072 164.002,305.365 163.988,302.000 164.400 M281.105 164.683 C 281.602 164.779,282.322 164.775,282.705 164.675 C 283.087 164.575,282.680 164.496,281.800 164.501 C 280.920 164.505,280.607 164.587,281.105 164.683 M140.700 187.889 C 141.415 187.978,142.585 187.978,143.300 187.889 C 144.015 187.801,143.430 187.728,142.000 187.728 C 140.570 187.728,139.985 187.801,140.700 187.889 M145.907 188.290 C 146.626 188.379,147.706 188.377,148.307 188.286 C 148.908 188.195,148.320 188.122,147.000 188.124 C 145.680 188.126,145.188 188.201,145.907 188.290 M118.000 188.800 L 116.600 189.095 118.000 189.107 C 118.770 189.115,119.850 188.976,120.400 188.800 L 121.400 188.480 120.400 188.493 C 119.850 188.500,118.770 188.638,118.000 188.800 M151.000 188.785 C 152.222 189.111,155.470 189.320,155.167 189.053 C 155.075 188.972,153.830 188.807,152.400 188.685 C 150.762 188.546,150.244 188.582,151.000 188.785 M112.600 189.600 C 111.522 189.874,111.502 189.906,112.400 189.913 C 112.950 189.917,113.850 189.776,114.400 189.600 C 115.744 189.169,114.292 189.169,112.600 189.600 M158.033 189.744 C 158.125 189.823,159.100 189.991,160.200 190.118 C 161.487 190.267,161.915 190.226,161.400 190.003 C 160.636 189.672,157.686 189.445,158.033 189.744 M108.000 190.400 L 107.000 190.720 108.000 190.732 C 108.550 190.738,109.360 190.589,109.800 190.400 L 110.600 190.056 109.800 190.068 C 109.360 190.074,108.550 190.224,108.000 190.400 M162.433 190.544 C 162.525 190.624,163.410 190.796,164.400 190.927 C 165.602 191.086,165.934 191.047,165.400 190.810 C 164.636 190.472,162.086 190.243,162.433 190.544 M104.800 191.200 C 103.976 191.464,103.941 191.526,104.600 191.554 C 105.040 191.573,105.670 191.413,106.000 191.200 C 106.701 190.747,106.214 190.747,104.800 191.200 M166.433 191.344 C 166.525 191.424,167.410 191.596,168.400 191.727 C 169.602 191.886,169.934 191.847,169.400 191.610 C 168.636 191.272,166.086 191.043,166.433 191.344 M101.600 192.000 C 100.776 192.264,100.741 192.326,101.400 192.354 C 101.840 192.373,102.470 192.213,102.800 192.000 C 103.501 191.547,103.014 191.547,101.600 192.000 M170.433 192.143 C 170.525 192.221,171.230 192.401,172.000 192.542 C 172.985 192.723,173.222 192.682,172.800 192.406 C 172.258 192.050,170.037 191.803,170.433 192.143 M174.033 192.943 C 174.125 193.021,174.830 193.201,175.600 193.342 C 176.585 193.523,176.822 193.482,176.400 193.206 C 175.858 192.850,173.637 192.603,174.033 192.943 M96.800 193.463 C 94.563 194.210,89.731 196.186,89.400 196.490 C 89.180 196.692,89.990 196.462,91.200 195.979 C 92.410 195.496,94.390 194.746,95.600 194.314 C 98.136 193.406,99.173 192.671,96.800 193.463 M177.633 193.744 C 177.725 193.823,178.340 194.008,179.000 194.156 C 179.876 194.352,180.038 194.315,179.600 194.018 C 179.060 193.653,177.232 193.398,177.633 193.744 M180.833 194.544 C 180.925 194.623,181.540 194.808,182.200 194.956 C 183.076 195.152,183.238 195.115,182.800 194.818 C 182.260 194.453,180.432 194.198,180.833 194.544 M186.097 224.655 L 186.195 253.000 186.300 224.857 L 186.405 196.715 187.503 196.976 C 188.106 197.120,188.960 197.328,189.400 197.438 C 190.028 197.595,190.071 197.556,189.600 197.256 C 189.270 197.045,188.325 196.747,187.500 196.592 L 186.000 196.311 186.097 224.655 M86.893 197.380 C 85.647 198.068,85.256 198.506,86.212 198.143 C 87.703 197.575,88.999 196.805,88.400 196.842 C 88.070 196.862,87.392 197.104,86.893 197.380 M191.000 198.000 C 191.440 198.189,192.070 198.344,192.400 198.344 C 192.778 198.344,192.704 198.217,192.200 198.000 C 191.760 197.811,191.130 197.656,190.800 197.656 C 190.422 197.656,190.496 197.783,191.000 198.000 M83.500 199.029 C 81.949 199.870,82.125 200.161,83.700 199.359 C 85.208 198.593,85.475 198.394,84.967 198.416 C 84.765 198.425,84.105 198.701,83.500 199.029 M79.100 201.429 C 77.605 202.240,77.696 202.578,79.200 201.800 C 79.860 201.459,80.400 201.094,80.400 200.990 C 80.400 200.732,80.357 200.747,79.100 201.429 M353.815 204.376 C 353.687 204.582,353.947 204.724,354.391 204.691 C 354.836 204.657,355.200 204.488,355.200 204.315 C 355.200 203.873,354.096 203.921,353.815 204.376 M351.900 205.429 C 351.295 205.757,350.800 206.110,350.800 206.213 C 350.800 206.599,351.432 206.357,352.400 205.600 C 353.589 204.670,353.411 204.609,351.900 205.429 M216.400 206.000 C 216.730 206.213,217.270 206.388,217.600 206.388 C 218.133 206.388,218.133 206.345,217.600 206.000 C 217.270 205.787,216.730 205.612,216.400 205.612 C 215.867 205.612,215.867 205.655,216.400 206.000 M344.800 209.209 C 342.710 210.285,341.144 211.172,341.321 211.182 C 341.743 211.206,348.090 208.047,348.580 207.570 C 349.183 206.983,348.827 207.137,344.800 209.209 M226.800 209.182 C 227.130 209.405,227.745 209.591,228.167 209.594 C 229.190 209.602,228.871 209.373,227.400 209.044 C 226.524 208.848,226.362 208.885,226.800 209.182 M229.600 209.982 C 229.930 210.205,230.545 210.391,230.967 210.394 C 231.990 210.402,231.671 210.173,230.200 209.844 C 229.324 209.648,229.162 209.685,229.600 209.982 M232.400 210.782 C 232.730 211.005,233.345 211.191,233.767 211.194 C 234.790 211.202,234.471 210.973,233.000 210.644 C 232.124 210.448,231.962 210.485,232.400 210.782 M235.200 211.582 C 235.530 211.805,236.145 211.991,236.567 211.994 C 237.590 212.002,237.271 211.773,235.800 211.444 C 234.924 211.248,234.762 211.285,235.200 211.582 M336.499 212.889 C 334.244 213.793,332.467 214.601,332.551 214.684 C 332.740 214.874,340.059 212.008,340.580 211.541 C 341.138 211.041,340.979 211.093,336.499 212.889 M242.833 213.344 C 242.925 213.423,243.540 213.608,244.200 213.756 C 245.076 213.952,245.238 213.915,244.800 213.618 C 244.260 213.253,242.432 212.998,242.833 213.344 M246.600 214.400 C 247.796 214.914,248.795 214.914,248.000 214.400 C 247.670 214.187,247.040 214.022,246.600 214.034 L 245.800 214.056 246.600 214.400 M250.000 215.200 C 250.330 215.413,250.870 215.588,251.200 215.588 C 251.733 215.588,251.733 215.545,251.200 215.200 C 250.870 214.987,250.330 214.812,250.000 214.812 C 249.467 214.812,249.467 214.855,250.000 215.200 M253.400 216.000 C 253.840 216.189,254.470 216.344,254.800 216.344 C 255.178 216.344,255.104 216.217,254.600 216.000 C 254.160 215.811,253.530 215.656,253.200 215.656 C 252.822 215.656,252.896 215.783,253.400 216.000 M256.800 216.800 C 258.168 217.238,259.219 217.238,258.200 216.800 C 257.760 216.611,257.040 216.462,256.600 216.468 C 255.957 216.477,255.996 216.543,256.800 216.800 M325.400 216.800 C 324.896 217.017,324.822 217.144,325.200 217.144 C 325.530 217.144,326.160 216.989,326.600 216.800 C 327.104 216.583,327.178 216.456,326.800 216.456 C 326.470 216.456,325.840 216.611,325.400 216.800 M260.600 217.600 C 261.040 217.789,261.760 217.944,262.200 217.944 L 263.000 217.944 262.200 217.600 C 261.760 217.411,261.040 217.256,260.600 217.256 L 259.800 217.256 260.600 217.600 M264.400 218.400 C 264.950 218.576,265.760 218.720,266.200 218.720 C 266.833 218.720,266.792 218.654,266.000 218.400 C 265.450 218.224,264.640 218.080,264.200 218.080 C 263.567 218.080,263.608 218.146,264.400 218.400 M319.200 218.400 C 318.405 218.914,319.404 218.914,320.600 218.400 L 321.400 218.056 320.600 218.034 C 320.160 218.022,319.530 218.187,319.200 218.400 M269.000 219.180 C 269.761 219.526,272.717 219.764,272.367 219.451 C 272.275 219.369,271.300 219.193,270.200 219.059 C 268.854 218.895,268.461 218.935,269.000 219.180 M315.200 219.200 C 314.396 219.457,314.357 219.523,315.000 219.532 C 315.440 219.538,316.160 219.389,316.600 219.200 C 317.619 218.762,316.568 218.762,315.200 219.200 M274.200 219.985 C 275.422 220.311,278.670 220.520,278.367 220.253 C 278.275 220.172,277.030 220.007,275.600 219.885 C 273.962 219.746,273.444 219.782,274.200 219.985 M310.600 220.000 L 309.400 220.305 310.600 220.325 C 311.260 220.335,312.160 220.189,312.600 220.000 L 313.400 219.656 312.600 219.675 C 312.160 219.686,311.260 219.832,310.600 220.000 M280.305 220.683 C 280.802 220.779,281.522 220.775,281.905 220.675 C 282.287 220.575,281.880 220.496,281.000 220.501 C 280.120 220.505,279.807 220.587,280.305 220.683 M303.400 220.800 L 301.000 221.066 303.200 221.085 C 304.410 221.096,305.940 220.968,306.600 220.800 C 308.138 220.409,306.937 220.409,303.400 220.800 " stroke="none" fill="#a4a4a3" fill-rule="evenodd"></path>
        <path id="path4" d="M122.400 18.800 C 121.970 19.078,122.388 19.189,123.876 19.194 C 125.018 19.197,126.064 19.020,126.200 18.800 C 126.522 18.279,123.206 18.279,122.400 18.800 M114.800 19.600 C 114.800 19.820,115.790 20.000,117.000 20.000 C 118.210 20.000,119.200 19.820,119.200 19.600 C 119.200 19.380,118.210 19.200,117.000 19.200 C 115.790 19.200,114.800 19.380,114.800 19.600 M112.400 20.400 C 112.400 20.620,112.085 20.814,111.700 20.832 C 111.254 20.852,111.188 20.938,111.517 21.071 C 112.229 21.356,114.000 20.873,114.000 20.392 C 114.000 20.177,113.640 20.000,113.200 20.000 C 112.760 20.000,112.400 20.180,112.400 20.400 M107.800 21.200 C 107.936 21.420,108.487 21.600,109.024 21.600 C 109.561 21.600,110.000 21.420,110.000 21.200 C 110.000 20.980,109.449 20.800,108.776 20.800 C 108.063 20.800,107.656 20.967,107.800 21.200 M105.044 22.229 C 104.876 22.668,105.004 22.819,105.468 22.729 C 105.834 22.658,106.209 22.375,106.300 22.100 C 106.545 21.365,105.328 21.490,105.044 22.229 M102.084 23.015 C 101.543 23.629,101.900 23.767,102.967 23.357 C 103.315 23.224,103.600 22.954,103.600 22.757 C 103.600 22.204,102.658 22.364,102.084 23.015 M99.613 23.891 C 99.089 24.482,99.103 24.523,99.746 24.276 C 100.142 24.124,100.541 24.000,100.633 24.000 C 100.725 24.000,100.800 23.820,100.800 23.600 C 100.800 23.012,100.281 23.139,99.613 23.891 M97.200 24.400 C 97.200 24.620,97.470 24.800,97.800 24.800 C 98.130 24.800,98.400 24.620,98.400 24.400 C 98.400 24.180,98.130 24.000,97.800 24.000 C 97.470 24.000,97.200 24.180,97.200 24.400 M185.200 54.852 L 185.200 82.905 183.900 82.655 C 180.675 82.036,180.306 82.023,182.000 82.588 C 182.990 82.918,184.205 83.191,184.700 83.194 L 185.600 83.200 185.600 55.000 C 185.600 39.490,185.510 26.800,185.400 26.800 C 185.290 26.800,185.200 39.424,185.200 54.852 M87.200 28.200 C 87.200 28.567,87.394 28.802,87.630 28.723 C 87.867 28.645,88.060 28.409,88.060 28.200 C 88.060 27.991,87.867 27.756,87.630 27.677 C 87.394 27.598,87.200 27.833,87.200 28.200 M85.804 28.793 C 85.666 29.017,85.196 29.200,84.760 29.200 C 84.323 29.200,83.580 29.560,83.108 30.000 C 82.636 30.440,81.732 30.800,81.101 30.800 C 80.437 30.800,80.057 30.969,80.200 31.200 C 80.336 31.420,80.066 31.600,79.600 31.600 C 79.134 31.600,78.864 31.780,79.000 32.000 C 79.136 32.220,78.967 32.400,78.624 32.400 C 78.281 32.400,78.000 32.580,78.000 32.800 C 78.000 33.020,77.809 33.200,77.576 33.200 C 77.343 33.200,77.254 33.037,77.377 32.837 C 77.500 32.638,77.166 32.680,76.635 32.931 C 76.103 33.182,75.754 33.525,75.858 33.693 C 75.962 33.862,75.705 34.000,75.288 34.000 C 74.840 34.000,74.335 34.452,74.058 35.100 C 73.651 36.051,73.661 36.106,74.133 35.506 C 74.433 35.125,74.806 34.939,74.961 35.095 C 75.117 35.250,75.372 35.169,75.529 34.915 C 75.868 34.366,85.124 29.600,85.851 29.600 C 86.511 29.600,86.917 28.920,86.434 28.621 C 86.226 28.492,85.942 28.570,85.804 28.793 M197.700 30.500 C 197.792 30.775,198.107 31.000,198.400 31.000 C 198.693 31.000,199.008 30.775,199.100 30.500 C 199.199 30.203,198.916 30.000,198.400 30.000 C 197.884 30.000,197.601 30.203,197.700 30.500 M200.000 31.400 C 200.000 31.851,200.281 32.016,200.900 31.928 C 201.395 31.858,201.800 31.620,201.800 31.400 C 201.800 31.180,201.395 30.942,200.900 30.872 C 200.281 30.784,200.000 30.949,200.000 31.400 M202.400 32.200 C 202.400 32.651,202.681 32.816,203.300 32.728 C 203.795 32.658,204.200 32.420,204.200 32.200 C 204.200 31.980,203.795 31.742,203.300 31.672 C 202.681 31.584,202.400 31.749,202.400 32.200 M204.900 32.900 C 205.152 33.657,206.400 33.764,206.400 33.029 C 206.400 32.658,206.058 32.400,205.567 32.400 C 205.078 32.400,204.802 32.607,204.900 32.900 M207.300 33.700 C 207.391 33.975,207.766 34.258,208.132 34.329 C 208.596 34.419,208.724 34.268,208.556 33.829 C 208.272 33.090,207.055 32.965,207.300 33.700 M209.700 34.500 C 209.791 34.775,210.211 35.054,210.633 35.121 C 211.055 35.187,211.760 35.387,212.200 35.565 C 213.306 36.013,215.802 36.800,216.116 36.800 C 216.258 36.800,216.276 36.542,216.155 36.228 C 216.025 35.888,215.428 35.670,214.689 35.691 C 214.003 35.710,213.373 35.518,213.288 35.263 C 213.203 35.008,212.508 34.800,211.743 34.800 C 210.918 34.800,210.453 34.637,210.600 34.400 C 210.736 34.180,210.552 34.000,210.190 34.000 C 209.829 34.000,209.608 34.225,209.700 34.500 M217.300 36.900 C 217.391 37.175,217.766 37.458,218.132 37.529 C 218.596 37.619,218.724 37.468,218.556 37.029 C 218.272 36.290,217.055 36.165,217.300 36.900 M219.600 37.600 C 219.600 37.820,219.960 38.000,220.400 38.000 C 220.840 38.000,221.200 37.820,221.200 37.600 C 221.200 37.380,220.840 37.200,220.400 37.200 C 219.960 37.200,219.600 37.380,219.600 37.600 M222.125 38.051 C 222.382 38.463,222.819 38.800,223.096 38.800 C 223.919 38.800,223.665 38.233,222.625 37.751 C 221.736 37.339,221.695 37.363,222.125 38.051 M224.800 39.200 C 224.800 39.420,225.070 39.600,225.400 39.600 C 225.730 39.600,226.000 39.420,226.000 39.200 C 226.000 38.980,225.730 38.800,225.400 38.800 C 225.070 38.800,224.800 38.980,224.800 39.200 M227.200 40.000 C 227.200 40.220,227.470 40.400,227.800 40.400 C 228.130 40.400,228.400 40.220,228.400 40.000 C 228.400 39.780,228.130 39.600,227.800 39.600 C 227.470 39.600,227.200 39.780,227.200 40.000 M230.000 40.800 C 230.000 41.020,230.551 41.200,231.224 41.200 C 231.937 41.200,232.344 41.033,232.200 40.800 C 232.064 40.580,231.513 40.400,230.976 40.400 C 230.439 40.400,230.000 40.580,230.000 40.800 M233.000 41.600 C 232.859 41.828,233.204 42.000,233.800 42.000 C 234.396 42.000,234.741 41.828,234.600 41.600 C 234.464 41.380,234.104 41.200,233.800 41.200 C 233.496 41.200,233.136 41.380,233.000 41.600 M236.000 42.400 C 236.000 42.620,236.405 42.797,236.900 42.794 C 237.628 42.789,237.685 42.714,237.200 42.400 C 236.424 41.899,236.000 41.899,236.000 42.400 M241.390 71.600 C 241.390 87.330,241.439 93.765,241.500 85.900 C 241.560 78.035,241.560 65.165,241.500 57.300 C 241.439 49.435,241.390 55.870,241.390 71.600 M354.242 48.235 C 354.109 48.582,354.000 58.355,354.000 69.953 C 354.000 85.821,353.881 91.159,353.520 91.520 C 352.873 92.167,353.624 92.108,354.500 91.443 C 355.151 90.949,355.200 89.422,355.200 69.480 C 355.200 50.019,355.027 46.188,354.242 48.235 M297.902 73.914 C 297.958 85.951,298.053 98.680,298.113 102.200 C 298.172 105.720,298.249 96.180,298.283 81.000 C 298.316 65.820,298.221 53.091,298.072 52.714 C 297.922 52.336,297.846 61.876,297.902 73.914 M129.762 75.138 C 129.965 75.467,129.320 75.614,127.524 75.647 C 126.136 75.673,124.460 75.836,123.800 76.009 C 123.113 76.189,124.026 76.228,125.939 76.101 C 128.362 75.939,129.362 76.014,129.583 76.373 C 129.797 76.719,129.955 76.617,130.107 76.034 C 130.227 75.576,130.134 75.083,129.901 74.939 C 129.651 74.784,129.594 74.867,129.762 75.138 M142.000 75.617 C 143.210 75.784,145.010 75.913,146.000 75.904 L 147.800 75.887 145.600 75.583 C 144.390 75.416,142.590 75.287,141.600 75.296 L 139.800 75.313 142.000 75.617 M150.800 76.380 C 151.799 76.720,154.282 76.932,153.967 76.651 C 153.875 76.569,152.900 76.399,151.800 76.272 C 150.451 76.116,150.126 76.151,150.800 76.380 M116.600 76.808 C 116.092 77.031,116.676 77.074,118.200 76.924 C 119.520 76.795,120.675 76.624,120.767 76.544 C 121.121 76.237,117.357 76.475,116.600 76.808 M156.600 77.197 C 157.364 77.528,160.314 77.755,159.967 77.456 C 159.875 77.377,158.900 77.209,157.800 77.082 C 156.513 76.933,156.085 76.974,156.600 77.197 M112.000 77.606 C 111.578 77.882,111.815 77.923,112.800 77.742 C 114.525 77.425,114.851 77.198,113.567 77.206 C 113.035 77.209,112.330 77.389,112.000 77.606 M161.400 77.981 C 162.168 78.329,164.310 78.556,163.967 78.253 C 163.875 78.172,163.080 77.996,162.200 77.862 C 161.085 77.693,160.842 77.729,161.400 77.981 M107.600 78.400 C 106.805 78.914,107.804 78.914,109.000 78.400 L 109.800 78.056 109.000 78.034 C 108.560 78.022,107.930 78.187,107.600 78.400 M165.400 78.781 C 166.168 79.129,168.310 79.356,167.967 79.053 C 167.875 78.972,167.080 78.796,166.200 78.662 C 165.085 78.493,164.842 78.529,165.400 78.781 M104.200 79.200 C 103.696 79.417,103.622 79.544,104.000 79.544 C 104.330 79.544,104.960 79.389,105.400 79.200 C 105.904 78.983,105.978 78.856,105.600 78.856 C 105.270 78.856,104.640 79.011,104.200 79.200 M169.400 79.581 C 170.168 79.929,172.310 80.156,171.967 79.853 C 171.875 79.772,171.080 79.596,170.200 79.462 C 169.085 79.293,168.842 79.329,169.400 79.581 M172.800 80.394 C 173.130 80.611,173.835 80.791,174.367 80.794 C 175.651 80.802,175.325 80.575,173.600 80.258 C 172.615 80.077,172.378 80.118,172.800 80.394 M185.600 111.372 L 185.600 139.144 184.326 138.779 C 183.626 138.578,182.976 138.490,182.883 138.584 C 182.789 138.678,183.277 138.901,183.967 139.079 L 185.221 139.405 185.205 167.382 C 185.193 189.154,185.080 195.429,184.695 195.674 C 184.328 195.907,184.323 195.989,184.676 195.994 C 184.938 195.997,185.233 195.865,185.332 195.700 C 185.613 195.228,186.129 83.600,185.850 83.600 C 185.712 83.600,185.600 96.097,185.600 111.372 M85.300 86.026 C 84.365 86.465,83.600 86.919,83.600 87.035 C 83.600 87.152,83.735 87.177,83.900 87.091 C 84.065 87.005,84.875 86.626,85.700 86.248 C 86.525 85.871,87.200 85.481,87.200 85.381 C 87.200 85.133,87.216 85.128,85.300 86.026 M80.000 88.836 C 79.336 89.379,79.269 89.515,79.800 89.240 C 81.105 88.566,81.828 88.012,81.400 88.015 C 81.180 88.017,80.550 88.386,80.000 88.836 M74.700 91.829 C 73.205 92.640,73.296 92.978,74.800 92.200 C 75.460 91.859,76.000 91.494,76.000 91.390 C 76.000 91.132,75.957 91.147,74.700 91.829 M233.000 98.000 C 233.440 98.189,234.070 98.344,234.400 98.344 C 234.778 98.344,234.704 98.217,234.200 98.000 C 233.760 97.811,233.130 97.656,232.800 97.656 C 232.422 97.656,232.496 97.783,233.000 98.000 M238.800 99.600 C 239.130 99.813,239.670 99.988,240.000 99.988 C 240.533 99.988,240.533 99.945,240.000 99.600 C 239.670 99.387,239.130 99.212,238.800 99.212 C 238.267 99.212,238.267 99.255,238.800 99.600 M241.600 128.600 C 241.600 154.797,241.560 156.402,240.900 156.432 C 240.482 156.450,240.401 156.544,240.700 156.665 C 241.351 156.928,241.440 212.214,240.790 212.537 C 240.565 212.649,240.609 212.694,240.890 212.637 C 241.296 212.554,241.421 206.866,241.503 184.667 C 241.559 169.340,241.739 156.800,241.903 156.800 C 242.066 156.800,242.153 144.267,242.095 128.948 L 241.989 101.096 243.695 101.330 C 244.849 101.489,245.142 101.450,244.600 101.210 C 244.160 101.016,243.305 100.844,242.700 100.828 L 241.600 100.800 241.600 128.600 M246.400 102.000 C 247.768 102.438,248.819 102.438,247.800 102.000 C 247.360 101.811,246.640 101.662,246.200 101.668 C 245.557 101.677,245.596 101.743,246.400 102.000 M249.800 102.800 C 250.240 102.989,250.870 103.144,251.200 103.144 C 251.578 103.144,251.504 103.017,251.000 102.800 C 250.560 102.611,249.930 102.456,249.600 102.456 C 249.222 102.456,249.296 102.583,249.800 102.800 M253.000 103.600 C 253.440 103.789,254.070 103.944,254.400 103.944 C 254.778 103.944,254.704 103.817,254.200 103.600 C 253.760 103.411,253.130 103.256,252.800 103.256 C 252.422 103.256,252.496 103.383,253.000 103.600 M327.200 103.600 C 326.376 103.864,326.341 103.926,327.000 103.954 C 327.440 103.973,328.070 103.813,328.400 103.600 C 329.101 103.147,328.614 103.147,327.200 103.600 M256.800 104.400 C 257.130 104.613,257.760 104.778,258.200 104.766 L 259.000 104.744 258.200 104.400 C 257.004 103.886,256.005 103.886,256.800 104.400 M322.800 104.818 C 322.362 105.115,322.524 105.152,323.400 104.956 C 324.871 104.627,325.190 104.398,324.167 104.406 C 323.745 104.409,323.130 104.595,322.800 104.818 M260.400 105.200 C 260.730 105.413,261.360 105.578,261.800 105.566 L 262.600 105.544 261.800 105.200 C 260.604 104.686,259.605 104.686,260.400 105.200 M319.400 105.619 C 318.842 105.871,319.085 105.907,320.200 105.738 C 321.080 105.604,321.875 105.428,321.967 105.347 C 322.310 105.044,320.168 105.271,319.400 105.619 M264.400 106.000 C 264.730 106.213,265.450 106.373,266.000 106.354 L 267.000 106.320 266.000 106.000 C 264.458 105.506,263.636 105.506,264.400 106.000 M316.500 106.276 C 316.885 106.376,317.515 106.376,317.900 106.276 C 318.285 106.175,317.970 106.093,317.200 106.093 C 316.430 106.093,316.115 106.175,316.500 106.276 M268.800 106.779 C 269.130 107.004,269.925 107.191,270.567 107.194 C 272.104 107.202,271.784 106.970,269.800 106.638 C 268.654 106.446,268.370 106.486,268.800 106.779 M309.600 107.207 C 308.979 107.411,309.509 107.451,311.000 107.312 C 312.320 107.189,313.475 107.024,313.567 106.944 C 313.889 106.665,310.588 106.884,309.600 107.207 M274.200 107.590 C 274.964 107.928,277.514 108.157,277.167 107.856 C 277.075 107.776,276.190 107.604,275.200 107.473 C 273.998 107.314,273.666 107.353,274.200 107.590 M301.600 108.019 C 300.523 108.197,301.327 108.233,303.600 108.108 C 305.690 107.993,307.475 107.831,307.567 107.749 C 307.841 107.503,303.535 107.698,301.600 108.019 M281.000 108.413 C 282.222 108.711,288.270 108.920,287.967 108.654 C 287.875 108.574,286.000 108.421,283.800 108.315 C 281.600 108.208,280.340 108.253,281.000 108.413 M297.600 136.700 C 297.490 152.155,297.535 164.800,297.700 164.800 C 297.865 164.800,298.000 177.490,298.000 193.000 L 298.000 221.200 299.700 221.133 L 301.400 221.066 299.900 220.909 L 298.400 220.752 298.400 192.996 L 298.400 165.240 300.700 165.096 L 303.000 164.951 300.503 164.876 L 298.005 164.800 297.903 136.700 L 297.800 108.600 297.600 136.700 M140.433 131.344 C 140.525 131.424,142.220 131.585,144.200 131.703 C 146.648 131.849,147.288 131.810,146.200 131.582 C 144.620 131.250,140.110 131.065,140.433 131.344 M127.100 131.882 C 127.595 131.978,128.405 131.978,128.900 131.882 C 129.395 131.787,128.990 131.709,128.000 131.709 C 127.010 131.709,126.605 131.787,127.100 131.882 M122.100 132.287 C 122.705 132.378,123.695 132.378,124.300 132.287 C 124.905 132.195,124.410 132.120,123.200 132.120 C 121.990 132.120,121.495 132.195,122.100 132.287 M151.400 132.400 C 153.092 132.831,154.544 132.831,153.200 132.400 C 152.650 132.224,151.750 132.083,151.200 132.087 C 150.302 132.094,150.322 132.126,151.400 132.400 M115.905 133.083 C 116.402 133.179,117.122 133.175,117.505 133.075 C 117.887 132.975,117.480 132.896,116.600 132.901 C 115.720 132.905,115.407 132.987,115.905 133.083 M157.000 133.200 C 157.660 133.368,158.650 133.505,159.200 133.505 C 160.092 133.505,160.070 133.472,159.000 133.200 C 158.340 133.032,157.350 132.895,156.800 132.895 C 155.908 132.895,155.930 132.928,157.000 133.200 M110.000 134.000 C 109.208 134.254,109.167 134.320,109.800 134.320 C 110.240 134.320,111.050 134.176,111.600 134.000 C 112.392 133.746,112.433 133.680,111.800 133.680 C 111.360 133.680,110.550 133.824,110.000 134.000 M161.800 133.981 C 162.568 134.329,164.710 134.556,164.367 134.253 C 164.275 134.172,163.480 133.996,162.600 133.862 C 161.485 133.693,161.242 133.729,161.800 133.981 M106.600 134.800 C 106.096 135.017,106.022 135.144,106.400 135.144 C 106.730 135.144,107.360 134.989,107.800 134.800 C 108.304 134.583,108.378 134.456,108.000 134.456 C 107.670 134.456,107.040 134.611,106.600 134.800 M165.800 134.781 C 166.568 135.129,168.710 135.356,168.367 135.053 C 168.275 134.972,167.480 134.796,166.600 134.662 C 165.485 134.493,165.242 134.529,165.800 134.781 M103.400 135.600 C 102.896 135.817,102.822 135.944,103.200 135.944 C 103.530 135.944,104.160 135.789,104.600 135.600 C 105.104 135.383,105.178 135.256,104.800 135.256 C 104.470 135.256,103.840 135.411,103.400 135.600 M98.000 137.200 C 97.467 137.545,97.467 137.588,98.000 137.588 C 98.330 137.588,98.870 137.413,99.200 137.200 C 99.733 136.855,99.733 136.812,99.200 136.812 C 98.870 136.812,98.330 136.987,98.000 137.200 M176.600 137.200 C 177.040 137.389,177.760 137.538,178.200 137.532 C 178.843 137.523,178.804 137.457,178.000 137.200 C 176.632 136.762,175.581 136.762,176.600 137.200 M198.400 143.582 C 198.730 143.805,199.345 143.991,199.767 143.994 C 200.790 144.002,200.471 143.773,199.000 143.444 C 198.124 143.248,197.962 143.285,198.400 143.582 M78.700 145.627 C 77.875 146.063,77.200 146.508,77.200 146.618 C 77.200 146.727,77.920 146.449,78.800 146.000 C 79.680 145.551,80.400 145.097,80.400 144.992 C 80.400 144.730,80.397 144.731,78.700 145.627 M208.400 146.546 C 208.400 146.773,212.236 148.004,212.875 147.982 C 213.164 147.973,212.707 147.718,211.859 147.416 C 209.893 146.715,208.400 146.339,208.400 146.546 M74.600 148.000 C 73.940 148.437,73.580 148.792,73.800 148.788 C 74.201 148.782,76.376 147.223,76.000 147.212 C 75.890 147.208,75.260 147.563,74.600 148.000 M214.000 148.341 C 214.330 148.534,215.140 148.809,215.800 148.952 C 216.568 149.118,216.784 149.084,216.400 148.859 C 216.070 148.666,215.260 148.391,214.600 148.248 C 213.832 148.082,213.616 148.116,214.000 148.341 M353.000 148.765 C 352.120 149.176,351.040 149.814,350.600 150.182 C 350.160 150.549,350.626 150.389,351.635 149.825 C 352.644 149.261,353.589 148.800,353.735 148.800 C 353.881 148.800,354.000 161.198,354.000 176.351 L 354.000 203.902 353.100 204.550 C 352.358 205.084,352.461 205.075,353.690 204.499 L 355.180 203.800 355.190 175.900 C 355.196 160.555,355.065 148.004,354.900 148.009 C 354.735 148.014,353.880 148.354,353.000 148.765 M348.300 151.429 C 346.805 152.240,346.896 152.578,348.400 151.800 C 349.060 151.459,349.600 151.094,349.600 150.990 C 349.600 150.732,349.557 150.747,348.300 151.429 M230.400 153.600 C 230.730 153.813,231.270 153.988,231.600 153.988 C 232.133 153.988,232.133 153.945,231.600 153.600 C 231.270 153.387,230.730 153.212,230.400 153.212 C 229.867 153.212,229.867 153.255,230.400 153.600 M238.000 156.000 C 238.330 156.213,238.870 156.388,239.200 156.388 C 239.733 156.388,239.733 156.345,239.200 156.000 C 238.870 155.787,238.330 155.612,238.000 155.612 C 237.467 155.612,237.467 155.655,238.000 156.000 M242.833 156.944 C 242.925 157.023,243.540 157.208,244.200 157.356 C 245.076 157.552,245.238 157.515,244.800 157.218 C 244.260 156.853,242.432 156.598,242.833 156.944 M246.033 157.744 C 246.125 157.823,246.740 158.008,247.400 158.156 C 248.276 158.352,248.438 158.315,248.000 158.018 C 247.460 157.653,245.632 157.398,246.033 157.744 M249.233 158.544 C 249.705 158.950,251.643 159.193,251.410 158.816 C 251.268 158.587,250.683 158.400,250.110 158.400 C 249.536 158.400,249.142 158.465,249.233 158.544 M252.833 159.344 C 252.925 159.423,253.540 159.608,254.200 159.756 C 255.076 159.952,255.238 159.915,254.800 159.618 C 254.260 159.253,252.432 158.998,252.833 159.344 M256.800 160.400 C 258.342 160.894,259.164 160.894,258.400 160.400 C 258.070 160.187,257.350 160.027,256.800 160.046 L 255.800 160.080 256.800 160.400 M325.600 160.800 C 324.776 161.064,324.741 161.126,325.400 161.154 C 325.840 161.173,326.470 161.013,326.800 160.800 C 327.501 160.347,327.014 160.347,325.600 160.800 M260.033 160.944 C 260.125 161.023,260.740 161.208,261.400 161.356 C 262.276 161.552,262.438 161.515,262.000 161.218 C 261.460 160.853,259.632 160.598,260.033 160.944 M322.600 161.600 C 321.493 161.882,321.477 161.909,322.400 161.947 C 322.950 161.969,323.670 161.813,324.000 161.600 C 324.681 161.160,324.329 161.160,322.600 161.600 M264.800 162.000 C 266.342 162.494,267.164 162.494,266.400 162.000 C 266.070 161.787,265.350 161.627,264.800 161.646 L 263.800 161.680 264.800 162.000 M318.800 162.400 C 317.433 162.688,317.428 162.695,318.600 162.719 C 319.260 162.733,320.160 162.589,320.600 162.400 C 321.562 161.987,320.764 161.987,318.800 162.400 M269.200 162.800 C 269.750 162.976,270.560 163.126,271.000 163.132 L 271.800 163.144 271.000 162.800 C 270.560 162.611,269.750 162.462,269.200 162.468 L 268.200 162.480 269.200 162.800 M314.600 163.200 L 313.000 163.486 314.400 163.515 C 315.170 163.531,316.160 163.389,316.600 163.200 C 317.543 162.795,316.862 162.795,314.600 163.200 M274.600 163.600 C 276.292 164.031,277.744 164.031,276.400 163.600 C 275.850 163.424,274.950 163.283,274.400 163.287 C 273.502 163.294,273.522 163.326,274.600 163.600 M309.200 164.000 L 307.000 164.270 309.000 164.295 C 310.100 164.309,311.450 164.176,312.000 164.000 C 313.228 163.607,312.409 163.607,309.200 164.000 M281.800 164.400 C 283.865 164.741,287.861 164.915,287.567 164.651 C 287.475 164.569,285.690 164.404,283.600 164.285 C 280.890 164.131,280.374 164.164,281.800 164.400 M304.500 164.676 C 304.885 164.776,305.515 164.776,305.900 164.676 C 306.285 164.575,305.970 164.493,305.200 164.493 C 304.430 164.493,304.115 164.575,304.500 164.676 M125.500 187.882 C 125.995 187.978,126.805 187.978,127.300 187.882 C 127.795 187.787,127.390 187.709,126.400 187.709 C 125.410 187.709,125.005 187.787,125.500 187.882 M130.265 187.900 C 130.164 188.065,133.439 188.216,137.541 188.235 C 142.814 188.260,144.121 188.187,142.000 187.987 C 137.820 187.593,130.484 187.539,130.265 187.900 M120.505 188.287 C 121.114 188.379,122.014 188.377,122.505 188.282 C 122.997 188.187,122.500 188.111,121.400 188.114 C 120.300 188.117,119.897 188.195,120.505 188.287 M148.600 188.800 C 149.260 188.968,150.340 189.105,151.000 189.105 L 152.200 189.105 151.000 188.800 C 150.340 188.632,149.260 188.495,148.600 188.495 L 147.400 188.495 148.600 188.800 M114.705 189.083 C 115.202 189.179,115.922 189.175,116.305 189.075 C 116.687 188.975,116.280 188.896,115.400 188.901 C 114.520 188.905,114.207 188.987,114.705 189.083 M154.800 189.580 C 155.799 189.920,158.282 190.132,157.967 189.851 C 157.875 189.769,156.900 189.599,155.800 189.472 C 154.451 189.316,154.126 189.351,154.800 189.580 M108.421 189.979 C 108.046 190.216,108.470 190.265,109.621 190.118 C 110.599 189.992,111.475 189.825,111.567 189.745 C 111.942 189.419,108.955 189.640,108.421 189.979 M160.000 190.400 C 160.330 190.613,161.050 190.773,161.600 190.754 L 162.600 190.720 161.600 190.400 C 160.058 189.906,159.236 189.906,160.000 190.400 M105.200 190.818 C 104.762 191.115,104.924 191.152,105.800 190.956 C 107.271 190.627,107.590 190.398,106.567 190.406 C 106.145 190.409,105.530 190.595,105.200 190.818 M164.200 191.200 C 164.640 191.389,165.360 191.538,165.800 191.532 C 166.443 191.523,166.404 191.457,165.600 191.200 C 164.232 190.762,163.181 190.762,164.200 191.200 M102.000 191.618 C 101.562 191.915,101.724 191.952,102.600 191.756 C 104.071 191.427,104.390 191.198,103.367 191.206 C 102.945 191.209,102.330 191.395,102.000 191.618 M168.400 191.982 C 168.730 192.205,169.345 192.391,169.767 192.394 C 170.790 192.402,170.471 192.173,169.000 191.844 C 168.124 191.648,167.962 191.685,168.400 191.982 M172.000 192.782 C 172.330 193.005,172.945 193.191,173.367 193.194 C 174.390 193.202,174.071 192.973,172.600 192.644 C 171.724 192.448,171.562 192.485,172.000 192.782 M175.400 193.600 C 175.840 193.789,176.560 193.938,177.000 193.932 C 177.643 193.923,177.604 193.857,176.800 193.600 C 175.432 193.162,174.381 193.162,175.400 193.600 M178.800 194.382 C 179.130 194.605,179.745 194.791,180.167 194.794 C 181.190 194.802,180.871 194.573,179.400 194.244 C 178.524 194.048,178.362 194.085,178.800 194.382 M182.000 195.182 C 182.330 195.405,182.945 195.591,183.367 195.594 C 184.390 195.602,184.071 195.373,182.600 195.044 C 181.724 194.848,181.562 194.885,182.000 195.182 M186.033 196.144 C 186.125 196.223,186.740 196.408,187.400 196.556 C 188.276 196.752,188.438 196.715,188.000 196.418 C 187.460 196.053,185.632 195.798,186.033 196.144 M185.789 224.800 C 185.789 240.310,185.839 246.655,185.900 238.900 C 185.961 231.145,185.961 218.455,185.900 210.700 C 185.839 202.945,185.789 209.290,185.789 224.800 M79.900 200.629 C 78.405 201.440,78.496 201.778,80.000 201.000 C 80.660 200.659,81.200 200.294,81.200 200.190 C 81.200 199.932,81.157 199.947,79.900 200.629 M76.500 202.626 C 75.565 203.187,74.800 203.740,74.800 203.855 C 74.800 204.071,77.499 202.538,78.180 201.936 C 78.867 201.328,78.227 201.591,76.500 202.626 M204.800 201.941 C 205.130 202.134,205.940 202.409,206.600 202.552 C 207.368 202.718,207.584 202.684,207.200 202.459 C 206.870 202.266,206.060 201.991,205.400 201.848 C 204.632 201.682,204.416 201.716,204.800 201.941 M212.833 204.544 C 212.925 204.623,213.540 204.808,214.200 204.956 C 215.076 205.152,215.238 205.115,214.800 204.818 C 214.260 204.453,212.432 204.198,212.833 204.544 M350.400 206.036 C 349.736 206.579,349.669 206.715,350.200 206.440 C 351.505 205.766,352.228 205.212,351.800 205.215 C 351.580 205.217,350.950 205.586,350.400 206.036 M218.033 206.144 C 218.125 206.223,218.740 206.408,219.400 206.556 C 220.276 206.752,220.438 206.715,220.000 206.418 C 219.460 206.053,217.632 205.798,218.033 206.144 M221.400 207.200 C 222.501 207.673,222.892 207.673,222.600 207.200 C 222.464 206.980,221.958 206.813,221.476 206.828 C 220.631 206.855,220.629 206.869,221.400 207.200 M223.233 207.744 C 223.325 207.823,223.940 208.008,224.600 208.156 C 225.476 208.352,225.638 208.315,225.200 208.018 C 224.660 207.653,222.832 207.398,223.233 207.744 M237.800 212.000 C 238.901 212.473,239.292 212.473,239.000 212.000 C 238.864 211.780,238.358 211.613,237.876 211.628 C 237.031 211.655,237.029 211.669,237.800 212.000 M241.505 241.162 C 241.447 256.541,241.535 269.040,241.700 268.938 C 241.865 268.836,242.000 256.358,242.000 241.210 C 242.000 219.550,242.107 213.624,242.500 213.465 C 242.801 213.344,242.723 213.251,242.305 213.232 C 241.653 213.202,241.604 214.907,241.505 241.162 M243.800 214.000 C 244.240 214.189,244.960 214.338,245.400 214.332 C 246.043 214.323,246.004 214.257,245.200 214.000 C 243.832 213.562,242.781 213.562,243.800 214.000 M247.633 214.943 C 247.725 215.021,248.430 215.201,249.200 215.342 C 250.185 215.523,250.422 215.482,250.000 215.206 C 249.458 214.850,247.237 214.603,247.633 214.943 M250.833 215.747 C 250.925 215.828,251.720 216.004,252.600 216.138 C 253.715 216.307,253.958 216.271,253.400 216.019 C 252.632 215.671,250.490 215.444,250.833 215.747 M324.200 216.800 C 323.696 217.017,323.622 217.144,324.000 217.144 C 324.330 217.144,324.960 216.989,325.400 216.800 C 325.904 216.583,325.978 216.456,325.600 216.456 C 325.270 216.456,324.640 216.611,324.200 216.800 M259.200 217.600 C 260.568 218.038,261.619 218.038,260.600 217.600 C 260.160 217.411,259.440 217.262,259.000 217.268 C 258.357 217.277,258.396 217.343,259.200 217.600 M321.200 217.600 C 320.376 217.864,320.341 217.926,321.000 217.954 C 321.440 217.973,322.070 217.813,322.400 217.600 C 323.101 217.147,322.614 217.147,321.200 217.600 M262.800 218.400 C 263.350 218.576,264.160 218.720,264.600 218.720 C 265.233 218.720,265.192 218.654,264.400 218.400 C 263.850 218.224,263.040 218.080,262.600 218.080 C 261.967 218.080,262.008 218.146,262.800 218.400 M317.800 218.400 C 316.693 218.682,316.677 218.709,317.600 218.747 C 318.150 218.769,318.870 218.613,319.200 218.400 C 319.881 217.960,319.529 217.960,317.800 218.400 M267.600 219.200 C 268.968 219.638,270.019 219.638,269.000 219.200 C 268.560 219.011,267.840 218.862,267.400 218.868 C 266.757 218.877,266.796 218.943,267.600 219.200 M313.200 219.200 C 311.843 219.486,311.837 219.495,313.000 219.507 C 313.660 219.515,314.650 219.376,315.200 219.200 C 316.512 218.780,315.196 218.780,313.200 219.200 M272.400 220.000 C 272.950 220.176,273.850 220.317,274.400 220.313 C 275.298 220.306,275.278 220.274,274.200 220.000 C 272.508 219.569,271.056 219.569,272.400 220.000 M307.800 220.000 L 305.800 220.274 307.600 220.290 C 308.590 220.298,309.940 220.168,310.600 220.000 C 312.177 219.599,310.725 219.599,307.800 220.000 M278.600 220.802 C 280.217 221.158,283.074 221.327,282.767 221.049 C 282.675 220.966,281.340 220.798,279.800 220.674 C 277.648 220.502,277.370 220.531,278.600 220.802 M303.100 220.682 C 303.595 220.778,304.405 220.778,304.900 220.682 C 305.395 220.587,304.990 220.509,304.000 220.509 C 303.010 220.509,302.605 220.587,303.100 220.682 M292.700 221.499 L 297.600 221.625 297.606 249.512 C 297.609 264.851,297.744 277.608,297.906 277.862 C 298.219 278.354,298.124 222.547,297.810 221.700 C 297.673 221.331,296.342 221.223,292.713 221.286 L 287.800 221.373 292.700 221.499 " stroke="none" fill="#9c9c9c" fill-rule="evenodd"></path>
    </g>
</svg>